<?xml version="1.0" encoding="UTF-8"?>
<svg xmlns="http://www.w3.org/2000/svg" viewBox="0 0 1200 690" role="img">
<title>TensorAlpha 10-Year Synthetic Backtest</title>
<desc>Normalized synthetic NAV and drawdown from 2015-01-05 through 2025-01-03.</desc>
<style>.title { font: 700 28px Inter, Segoe UI, sans-serif; fill: #172033; }
    .subtitle { font: 400 14px Inter, Segoe UI, sans-serif; fill: #667085; }
    .panel-title { font: 650 16px Inter, Segoe UI, sans-serif; fill: #172033; }
    .label { font: 500 12px Inter, Segoe UI, sans-serif; fill: #172033; }
    .muted { font: 400 11px Inter, Segoe UI, sans-serif; fill: #667085; }
    .mono { font: 600 12px ui-monospace, SFMono-Regular, Consolas, monospace; fill: #172033; }
    .grid { stroke: #D9DEE8; stroke-width: 1; shape-rendering: crispEdges; }
    .axis { stroke: #667085; stroke-width: 1.2; shape-rendering: crispEdges; }</style>
<rect width="1200" height="690" fill="#FAFAF8"/>
<g aria-label="TensorAlpha mark" transform="translate(1137 43)"><circle cx="0" cy="-9" r="6" fill="#2367C9"/><circle cx="9" cy="0" r="6" fill="#C28A16"/><circle cx="0" cy="9" r="6" fill="#8CB9F2"/><circle cx="-9" cy="0" r="6" fill="#F4E4B6" stroke="#C28A16"/></g>
<text x="58.0" y="52.0" class="title" text-anchor="start">TensorAlpha · 10-Year Synthetic Backtest</text>
<text x="58.0" y="78.0" class="subtitle" text-anchor="start">Illustrative only · 2015-01-05 to 2025-01-03 · Deterministic synthetic data · Not historical performance</text>
<text x="58.0" y="112.0" class="mono" text-anchor="start">Total return  -55.5%</text>
<text x="270.0" y="112.0" class="mono" text-anchor="start">Max drawdown  -65.6%</text>
<text x="58.0" y="150.0" class="panel-title" text-anchor="start">Normalized NAV</text>
<line x1="92.0" y1="382.0" x2="1144.0" y2="382.0" class="grid"/>
<text x="80.0" y="386.0" class="muted" text-anchor="end">0.28</text>
<line x1="92.0" y1="277.0" x2="1144.0" y2="277.0" class="grid"/>
<text x="80.0" y="281.0" class="muted" text-anchor="end">0.70</text>
<line x1="92.0" y1="172.0" x2="1144.0" y2="172.0" class="grid"/>
<text x="80.0" y="176.0" class="muted" text-anchor="end">1.12</text>
<line x1="92.0" y1="202.3" x2="1144.0" y2="202.3" stroke="#667085" stroke-dasharray="5 4"/>
<polyline points="92.0,202.3 92.4,206.0 92.8,206.1 93.2,204.5 93.6,208.9 94.0,211.4 94.4,208.7 94.8,209.0 95.2,207.8 95.6,210.5 96.0,208.7 96.4,206.0 96.8,205.9 97.2,202.1 97.6,201.7 98.0,202.8 98.5,200.8 98.9,202.4 99.3,200.1 99.7,200.7 100.1,201.0 100.5,202.9 100.9,200.0 101.3,200.9 101.7,201.2 102.1,202.6 102.5,200.4 102.9,200.5 103.3,200.5 103.7,199.1 104.1,194.4 104.5,196.4 104.9,196.1 105.3,197.2 105.7,194.9 106.1,192.6 106.5,192.3 106.9,194.8 107.3,195.7 107.7,194.5 108.1,192.6 108.5,193.2 108.9,195.9 109.3,193.8 109.7,195.0 110.1,196.5 110.5,195.5 111.0,195.1 111.4,195.7 111.8,195.1 112.2,195.8 112.6,194.7 113.0,197.4 113.4,197.8 113.8,199.3 114.2,200.9 114.6,201.8 115.0,200.2 115.4,202.2 115.8,200.6 116.2,203.1 116.6,205.3 117.0,204.1 117.4,201.4 117.8,199.7 118.2,195.4 118.6,195.6 119.0,197.0 119.4,194.8 119.8,195.1 120.2,197.0 120.6,199.1 121.0,200.6 121.4,200.4 121.8,199.3 122.2,196.6 122.6,197.4 123.0,198.6 123.5,197.7 123.9,198.0 124.3,197.0 124.7,198.1 125.1,198.0 125.5,200.3 125.9,203.5 126.3,202.4 126.7,204.8 127.1,207.5 127.5,206.9 127.9,205.5 128.3,203.0 128.7,204.3 129.1,206.0 129.5,206.2 129.9,208.3 130.3,210.8 130.7,213.3 131.1,215.4 131.5,214.6 131.9,215.3 132.3,217.2 132.7,213.9 133.1,213.9 133.5,213.4 133.9,213.4 134.3,214.2 134.7,217.3 135.1,216.6 135.5,215.2 136.0,218.1 136.4,218.5 136.8,218.1 137.2,219.1 137.6,222.9 138.0,222.1 138.4,225.2 138.8,224.6 139.2,223.6 139.6,220.2 140.0,220.5 140.4,223.2 140.8,222.4 141.2,222.0 141.6,219.0 142.0,217.4 142.4,218.1 142.8,215.7 143.2,217.3 143.6,218.7 144.0,221.3 144.4,222.4 144.8,224.5 145.2,223.9 145.6,224.7 146.0,227.0 146.4,227.8 146.8,227.7 147.2,226.0 147.6,223.8 148.0,217.9 148.5,217.1 148.9,218.9 149.3,223.4 149.7,224.0 150.1,225.8 150.5,227.6 150.9,228.4 151.3,229.1 151.7,227.6 152.1,227.1 152.5,228.6 152.9,229.5 153.3,231.8 153.7,232.0 154.1,231.4 154.5,227.7 154.9,227.1 155.3,224.3 155.7,226.3 156.1,226.7 156.5,228.7 156.9,230.1 157.3,228.0 157.7,227.3 158.1,226.5 158.5,228.7 158.9,226.6 159.3,226.5 159.7,227.1 160.1,227.9 160.5,229.2 161.0,228.9 161.4,230.2 161.8,232.8 162.2,234.2 162.6,233.6 163.0,232.0 163.4,232.0 163.8,231.4 164.2,232.5 164.6,228.7 165.0,229.6 165.4,230.2 165.8,228.6 166.2,229.7 166.6,226.6 167.0,224.6 167.4,226.2 167.8,228.2 168.2,225.4 168.6,222.9 169.0,223.7 169.4,225.1 169.8,223.2 170.2,225.2 170.6,225.4 171.0,224.0 171.4,225.5 171.8,226.1 172.2,226.0 172.6,225.9 173.0,224.2 173.5,223.5 173.9,222.8 174.3,227.9 174.7,229.0 175.1,230.2 175.5,232.7 175.9,232.7 176.3,233.0 176.7,230.5 177.1,233.6 177.5,235.2 177.9,235.7 178.3,236.8 178.7,235.2 179.1,234.5 179.5,233.6 179.9,234.2 180.3,236.2 180.7,236.4 181.1,237.0 181.5,237.0 181.9,239.5 182.3,239.3 182.7,238.1 183.1,234.4 183.5,231.2 183.9,231.4 184.3,232.4 184.7,236.0 185.1,237.2 185.5,237.1 186.0,234.0 186.4,233.5 186.8,235.6 187.2,240.2 187.6,241.3 188.0,243.4 188.4,245.1 188.8,245.2 189.2,245.8 189.6,248.7 190.0,250.5 190.4,248.3 190.8,251.3 191.2,254.7 191.6,251.4 192.0,246.0 192.4,247.7 192.8,248.3 193.2,247.9 193.6,245.0 194.0,247.2 194.4,248.5 194.8,247.9 195.2,247.0 195.6,246.3 196.0,247.8 196.4,249.7 196.8,250.4 197.2,250.3 197.6,250.6 198.0,250.7 198.4,248.9 198.9,248.0 199.3,247.0 199.7,244.8 200.1,245.7 200.5,244.9 200.9,247.2 201.3,247.0 201.7,247.4 202.1,244.8 202.5,242.8 202.9,240.6 203.3,242.1 203.7,243.1 204.1,241.5 204.5,240.3 204.9,240.3 205.3,243.7 205.7,241.0 206.1,239.7 206.5,240.9 206.9,241.3 207.3,239.7 207.7,238.5 208.1,238.8 208.5,238.7 208.9,238.9 209.3,238.7 209.7,236.4 210.1,240.8 210.5,241.9 210.9,241.5 211.4,240.0 211.8,241.1 212.2,243.5 212.6,243.0 213.0,240.2 213.4,242.7 213.8,242.5 214.2,242.5 214.6,242.7 215.0,246.5 215.4,246.5 215.8,245.2 216.2,243.0 216.6,240.3 217.0,237.7 217.4,237.3 217.8,233.9 218.2,233.4 218.6,232.3 219.0,233.9 219.4,233.4 219.8,233.2 220.2,232.3 220.6,234.3 221.0,232.2 221.4,233.0 221.8,232.4 222.2,230.9 222.6,228.1 223.0,225.9 223.4,229.8 223.9,230.2 224.3,231.2 224.7,233.1 225.1,230.9 225.5,230.6 225.9,231.2 226.3,232.9 226.7,230.7 227.1,231.4 227.5,231.9 227.9,232.3 228.3,229.2 228.7,227.3 229.1,231.0 229.5,229.6 229.9,229.3 230.3,228.1 230.7,225.3 231.1,229.9 231.5,230.5 231.9,229.0 232.3,230.8 232.7,228.2 233.1,227.6 233.5,227.8 233.9,229.5 234.3,227.3 234.7,226.4 235.1,225.4 235.5,224.0 235.9,224.0 236.4,226.5 236.8,226.2 237.2,227.7 237.6,226.2 238.0,223.6 238.4,225.3 238.8,225.0 239.2,222.7 239.6,223.3 240.0,223.3 240.4,222.5 240.8,220.4 241.2,219.5 241.6,216.9 242.0,217.0 242.4,214.9 242.8,215.8 243.2,212.1 243.6,212.4 244.0,213.9 244.4,211.1 244.8,214.5 245.2,213.6 245.6,210.7 246.0,214.4 246.4,217.5 246.8,220.4 247.2,221.8 247.6,219.7 248.0,217.9 248.4,216.1 248.9,218.4 249.3,224.8 249.7,226.5 250.1,226.2 250.5,226.5 250.9,224.6 251.3,223.9 251.7,222.4 252.1,222.7 252.5,221.8 252.9,222.7 253.3,221.7 253.7,220.2 254.1,218.2 254.5,218.7 254.9,218.7 255.3,218.5 255.7,219.3 256.1,215.9 256.5,219.6 256.9,222.3 257.3,225.0 257.7,228.7 258.1,230.1 258.5,229.2 258.9,229.1 259.3,228.3 259.7,225.8 260.1,224.0 260.5,223.6 260.9,222.3 261.4,222.8 261.8,223.0 262.2,221.4 262.6,224.7 263.0,226.6 263.4,226.7 263.8,224.0 264.2,221.4 264.6,224.2 265.0,222.9 265.4,224.6 265.8,224.4 266.2,224.5 266.6,227.9 267.0,225.9 267.4,225.9 267.8,227.0 268.2,229.9 268.6,230.4 269.0,229.1 269.4,229.6 269.8,231.2 270.2,230.4 270.6,226.7 271.0,226.9 271.4,228.8 271.8,227.9 272.2,228.0 272.6,224.7 273.0,225.0 273.4,223.7 273.9,222.2 274.3,218.7 274.7,214.4 275.1,214.1 275.5,213.1 275.9,211.2 276.3,212.5 276.7,212.1 277.1,213.0 277.5,212.2 277.9,212.8 278.3,215.1 278.7,220.0 279.1,222.4 279.5,222.6 279.9,222.0 280.3,218.0 280.7,215.6 281.1,218.7 281.5,218.7 281.9,218.8 282.3,219.5 282.7,218.7 283.1,218.1 283.5,218.5 283.9,218.5 284.3,221.6 284.7,220.4 285.1,215.1 285.5,214.6 285.9,211.8 286.4,211.8 286.8,211.2 287.2,210.5 287.6,211.7 288.0,213.1 288.4,213.2 288.8,215.4 289.2,214.4 289.6,213.0 290.0,211.4 290.4,213.8 290.8,213.6 291.2,212.8 291.6,209.2 292.0,211.8 292.4,214.0 292.8,217.5 293.2,220.4 293.6,217.9 294.0,216.3 294.4,218.1 294.8,220.8 295.2,224.5 295.6,224.0 296.0,221.6 296.4,220.9 296.8,221.4 297.2,220.5 297.6,224.2 298.0,224.4 298.4,225.3 298.9,224.8 299.3,223.3 299.7,223.8 300.1,222.9 300.5,222.9 300.9,222.0 301.3,218.3 301.7,219.9 302.1,222.5 302.5,218.8 302.9,220.2 303.3,217.4 303.7,218.4 304.1,216.5 304.5,217.0 304.9,215.8 305.3,213.2 305.7,213.7 306.1,215.5 306.5,217.5 306.9,215.6 307.3,217.3 307.7,215.7 308.1,215.6 308.5,215.2 308.9,219.2 309.3,220.2 309.7,224.1 310.1,225.4 310.5,224.1 310.9,222.6 311.4,222.2 311.8,222.6 312.2,223.7 312.6,225.5 313.0,223.4 313.4,223.1 313.8,223.1 314.2,222.0 314.6,221.7 315.0,217.7 315.4,218.5 315.8,218.4 316.2,218.0 316.6,220.6 317.0,221.8 317.4,222.8 317.8,221.7 318.2,222.4 318.6,223.2 319.0,224.3 319.4,222.4 319.8,222.6 320.2,222.8 320.6,223.8 321.0,221.9 321.4,222.5 321.8,224.9 322.2,223.8 322.6,223.3 323.0,225.7 323.4,225.6 323.9,227.1 324.3,223.9 324.7,222.7 325.1,223.0 325.5,222.5 325.9,227.3 326.3,229.6 326.7,231.4 327.1,233.8 327.5,231.9 327.9,228.8 328.3,230.9 328.7,232.1 329.1,231.9 329.5,231.0 329.9,232.0 330.3,232.1 330.7,228.5 331.1,230.7 331.5,234.0 331.9,232.8 332.3,233.0 332.7,231.4 333.1,229.9 333.5,233.7 333.9,231.4 334.3,232.7 334.7,231.2 335.1,232.4 335.5,234.7 335.9,234.2 336.4,231.8 336.8,232.2 337.2,235.7 337.6,234.1 338.0,235.3 338.4,234.8 338.8,237.3 339.2,236.0 339.6,236.0 340.0,237.5 340.4,236.7 340.8,236.3 341.2,238.0 341.6,233.9 342.0,234.8 342.4,234.7 342.8,234.3 343.2,235.4 343.6,234.0 344.0,235.5 344.4,236.1 344.8,234.5 345.2,236.9 345.6,241.2 346.0,238.4 346.4,234.2 346.8,234.0 347.2,237.0 347.6,237.3 348.0,237.6 348.4,237.0 348.9,239.6 349.3,238.4 349.7,237.2 350.1,239.4 350.5,236.0 350.9,233.7 351.3,234.1 351.7,234.1 352.1,233.2 352.5,230.3 352.9,232.9 353.3,232.8 353.7,233.3 354.1,229.2 354.5,229.5 354.9,227.8 355.3,230.2 355.7,229.1 356.1,227.3 356.5,229.4 356.9,229.4 357.3,225.7 357.7,226.3 358.1,229.7 358.5,229.3 358.9,229.5 359.3,230.5 359.7,231.3 360.1,233.8 360.5,235.8 360.9,234.7 361.4,236.4 361.8,241.7 362.2,240.4 362.6,240.0 363.0,240.6 363.4,241.7 363.8,241.6 364.2,240.8 364.6,237.1 365.0,236.6 365.4,236.5 365.8,237.2 366.2,235.2 366.6,235.1 367.0,233.8 367.4,235.1 367.8,236.4 368.2,236.2 368.6,234.8 369.0,231.4 369.4,233.1 369.8,234.8 370.2,234.1 370.6,234.5 371.0,232.8 371.4,235.4 371.8,237.3 372.2,237.3 372.6,241.1 373.0,243.5 373.4,245.0 373.9,246.2 374.3,243.3 374.7,242.7 375.1,244.7 375.5,244.6 375.9,243.1 376.3,245.3 376.7,246.9 377.1,245.8 377.5,246.6 377.9,244.8 378.3,243.3 378.7,241.0 379.1,243.0 379.5,241.8 379.9,241.9 380.3,243.4 380.7,244.9 381.1,242.3 381.5,242.2 381.9,244.8 382.3,245.3 382.7,242.9 383.1,246.6 383.5,249.6 383.9,249.8 384.3,248.3 384.7,247.4 385.1,247.4 385.5,248.9 385.9,250.7 386.4,249.9 386.8,251.8 387.2,250.6 387.6,251.0 388.0,250.3 388.4,249.7 388.8,249.3 389.2,247.9 389.6,251.5 390.0,255.7 390.4,255.2 390.8,253.6 391.2,255.5 391.6,259.4 392.0,260.1 392.4,259.2 392.8,256.4 393.2,255.0 393.6,254.4 394.0,255.0 394.4,254.0 394.8,253.6 395.2,253.9 395.6,250.4 396.0,249.1 396.4,247.3 396.8,247.2 397.2,245.7 397.6,245.1 398.0,246.2 398.4,244.3 398.9,242.9 399.3,241.4 399.7,240.6 400.1,239.5 400.5,242.1 400.9,241.2 401.3,243.0 401.7,245.5 402.1,242.7 402.5,240.2 402.9,236.9 403.3,237.1 403.7,235.7 404.1,236.2 404.5,236.8 404.9,238.6 405.3,237.6 405.7,237.3 406.1,240.3 406.5,240.2 406.9,239.3 407.3,237.5 407.7,236.8 408.1,235.7 408.5,236.0 408.9,235.3 409.3,235.9 409.7,236.7 410.1,237.6 410.5,237.4 410.9,238.5 411.3,236.3 411.8,235.3 412.2,239.4 412.6,239.9 413.0,238.1 413.4,236.9 413.8,235.3 414.2,236.4 414.6,237.8 415.0,238.6 415.4,239.1 415.8,239.2 416.2,236.3 416.6,236.5 417.0,235.3 417.4,238.1 417.8,238.1 418.2,238.3 418.6,239.2 419.0,242.1 419.4,242.1 419.8,242.0 420.2,242.1 420.6,241.5 421.0,241.7 421.4,241.2 421.8,241.0 422.2,241.8 422.6,242.4 423.0,239.2 423.4,242.8 423.8,246.8 424.3,249.0 424.7,249.2 425.1,248.4 425.5,248.8 425.9,248.4 426.3,252.4 426.7,251.6 427.1,248.9 427.5,250.9 427.9,250.7 428.3,251.0 428.7,251.6 429.1,252.9 429.5,249.4 429.9,246.3 430.3,246.9 430.7,244.4 431.1,245.3 431.5,242.5 431.9,242.5 432.3,242.4 432.7,241.4 433.1,237.3 433.5,236.9 433.9,236.9 434.3,234.6 434.7,235.3 435.1,235.5 435.5,235.1 435.9,236.5 436.3,235.6 436.8,235.6 437.2,235.1 437.6,233.5 438.0,237.0 438.4,235.0 438.8,237.8 439.2,241.5 439.6,241.4 440.0,242.2 440.4,243.1 440.8,241.4 441.2,244.6 441.6,246.2 442.0,247.2 442.4,246.3 442.8,245.4 443.2,247.8 443.6,246.4 444.0,247.7 444.4,250.5 444.8,253.0 445.2,252.4 445.6,252.5 446.0,252.6 446.4,253.8 446.8,253.2 447.2,251.0 447.6,253.5 448.0,253.8 448.4,255.5 448.8,255.3 449.3,254.4 449.7,255.9 450.1,258.4 450.5,262.2 450.9,262.1 451.3,261.6 451.7,262.5 452.1,262.4 452.5,263.4 452.9,262.0 453.3,262.6 453.7,264.3 454.1,264.7 454.5,266.4 454.9,265.6 455.3,265.4 455.7,266.7 456.1,264.1 456.5,264.8 456.9,261.9 457.3,262.7 457.7,265.5 458.1,264.7 458.5,265.6 458.9,266.0 459.3,264.6 459.7,264.4 460.1,266.9 460.5,264.8 460.9,263.0 461.3,260.8 461.8,260.6 462.2,258.7 462.6,260.7 463.0,261.4 463.4,263.3 463.8,262.4 464.2,263.0 464.6,262.8 465.0,261.1 465.4,262.0 465.8,263.1 466.2,263.8 466.6,264.1 467.0,264.4 467.4,264.4 467.8,263.2 468.2,261.5 468.6,260.5 469.0,259.7 469.4,262.1 469.8,261.8 470.2,259.7 470.6,258.3 471.0,257.6 471.4,257.2 471.8,257.2 472.2,255.2 472.6,254.8 473.0,255.7 473.4,255.0 473.8,260.4 474.3,259.6 474.7,265.1 475.1,267.8 475.5,267.0 475.9,266.0 476.3,268.7 476.7,269.9 477.1,268.7 477.5,270.5 477.9,267.1 478.3,267.0 478.7,265.9 479.1,263.0 479.5,263.2 479.9,265.1 480.3,264.8 480.7,265.4 481.1,268.0 481.5,267.5 481.9,268.7 482.3,267.3 482.7,266.9 483.1,266.4 483.5,266.0 483.9,265.4 484.3,264.1 484.7,265.1 485.1,266.9 485.5,266.4 485.9,267.3 486.3,270.2 486.8,269.6 487.2,267.8 487.6,270.1 488.0,269.7 488.4,269.8 488.8,268.8 489.2,268.5 489.6,271.8 490.0,272.7 490.4,273.1 490.8,274.3 491.2,272.6 491.6,271.0 492.0,268.4 492.4,266.9 492.8,267.3 493.2,266.9 493.6,266.0 494.0,266.7 494.4,266.2 494.8,267.0 495.2,266.8 495.6,269.7 496.0,270.1 496.4,268.8 496.8,268.5 497.2,267.2 497.6,266.2 498.0,265.6 498.4,264.5 498.8,264.3 499.3,266.8 499.7,265.3 500.1,266.3 500.5,269.5 500.9,272.2 501.3,273.0 501.7,272.4 502.1,272.5 502.5,271.3 502.9,269.7 503.3,267.8 503.7,267.0 504.1,266.0 504.5,266.3 504.9,270.5 505.3,270.7 505.7,274.1 506.1,273.9 506.5,274.5 506.9,273.9 507.3,271.5 507.7,270.6 508.1,270.5 508.5,269.6 508.9,270.6 509.3,270.7 509.7,268.9 510.1,270.8 510.5,269.5 510.9,267.3 511.3,269.9 511.8,269.2 512.2,268.6 512.6,269.6 513.0,270.4 513.4,272.8 513.8,272.9 514.2,272.1 514.6,273.4 515.0,272.7 515.4,275.4 515.8,275.9 516.2,275.9 516.6,272.1 517.0,275.7 517.4,274.9 517.8,274.3 518.2,273.5 518.6,273.7 519.0,272.7 519.4,271.8 519.8,270.5 520.2,271.1 520.6,270.2 521.0,271.3 521.4,270.9 521.8,272.3 522.2,270.3 522.6,267.6 523.0,268.1 523.4,268.7 523.8,270.0 524.3,270.6 524.7,273.3 525.1,274.9 525.5,274.9 525.9,272.2 526.3,268.1 526.7,267.4 527.1,265.7 527.5,265.9 527.9,265.9 528.3,264.4 528.7,263.7 529.1,263.8 529.5,265.6 529.9,267.9 530.3,271.0 530.7,269.5 531.1,270.1 531.5,270.0 531.9,270.8 532.3,269.2 532.7,268.2 533.1,268.5 533.5,266.7 533.9,264.8 534.3,263.9 534.7,261.9 535.1,260.9 535.5,259.1 535.9,260.4 536.3,259.5 536.8,258.5 537.2,260.6 537.6,257.9 538.0,260.4 538.4,262.1 538.8,260.9 539.2,259.9 539.6,258.1 540.0,257.6 540.4,259.3 540.8,260.1 541.2,260.9 541.6,261.8 542.0,259.1 542.4,259.3 542.8,259.8 543.2,261.0 543.6,259.5 544.0,258.5 544.4,261.1 544.8,261.0 545.2,261.3 545.6,261.3 546.0,257.6 546.4,259.0 546.8,260.5 547.2,263.2 547.6,265.9 548.0,266.3 548.4,266.5 548.8,265.1 549.3,265.2 549.7,263.5 550.1,263.5 550.5,263.1 550.9,264.1 551.3,262.5 551.7,259.3 552.1,263.2 552.5,265.7 552.9,266.1 553.3,265.5 553.7,263.9 554.1,264.3 554.5,263.8 554.9,261.2 555.3,259.3 555.7,258.6 556.1,256.7 556.5,256.7 556.9,256.5 557.3,255.2 557.7,255.5 558.1,255.5 558.5,254.2 558.9,257.5 559.3,259.6 559.7,260.6 560.1,259.3 560.5,259.5 560.9,262.2 561.3,263.7 561.8,265.1 562.2,262.0 562.6,258.6 563.0,259.9 563.4,260.7 563.8,262.5 564.2,266.2 564.6,266.6 565.0,266.6 565.4,268.2 565.8,270.5 566.2,271.4 566.6,271.5 567.0,271.0 567.4,270.0 567.8,272.2 568.2,271.2 568.6,272.4 569.0,271.5 569.4,271.6 569.8,273.8 570.2,273.4 570.6,273.9 571.0,275.0 571.4,274.7 571.8,272.6 572.2,272.0 572.6,272.8 573.0,272.0 573.4,270.5 573.8,267.7 574.3,268.8 574.7,270.1 575.1,268.3 575.5,269.7 575.9,271.4 576.3,272.4 576.7,272.7 577.1,272.4 577.5,273.9 577.9,274.8 578.3,276.6 578.7,276.9 579.1,274.6 579.5,275.2 579.9,273.0 580.3,273.8 580.7,274.4 581.1,275.8 581.5,281.3 581.9,283.8 582.3,286.1 582.7,289.3 583.1,291.3 583.5,289.1 583.9,288.4 584.3,286.0 584.7,286.4 585.1,285.9 585.5,286.5 585.9,286.7 586.3,286.6 586.8,287.9 587.2,286.9 587.6,285.8 588.0,287.2 588.4,288.8 588.8,291.4 589.2,291.9 589.6,290.9 590.0,291.1 590.4,290.4 590.8,289.6 591.2,288.8 591.6,287.3 592.0,286.5 592.4,287.4 592.8,286.1 593.2,286.2 593.6,284.5 594.0,284.4 594.4,284.0 594.8,286.6 595.2,287.7 595.6,289.2 596.0,287.6 596.4,286.6 596.8,287.9 597.2,287.4 597.6,289.5 598.0,289.8 598.4,288.2 598.8,288.0 599.3,286.0 599.7,286.9 600.1,286.5 600.5,285.9 600.9,285.4 601.3,285.7 601.7,285.7 602.1,286.8 602.5,287.7 602.9,286.7 603.3,286.4 603.7,286.0 604.1,284.5 604.5,282.0 604.9,282.7 605.3,282.2 605.7,283.6 606.1,283.2 606.5,284.5 606.9,283.1 607.3,283.7 607.7,284.1 608.1,283.1 608.5,285.7 608.9,288.5 609.3,287.6 609.7,287.4 610.1,287.2 610.5,287.9 610.9,287.7 611.3,285.1 611.8,285.0 612.2,285.2 612.6,286.3 613.0,286.2 613.4,289.5 613.8,289.0 614.2,288.4 614.6,291.4 615.0,293.0 615.4,295.2 615.8,297.0 616.2,297.0 616.6,299.3 617.0,298.1 617.4,296.0 617.8,296.4 618.2,300.0 618.6,301.3 619.0,300.2 619.4,304.0 619.8,304.5 620.2,306.5 620.6,305.0 621.0,306.6 621.4,305.7 621.8,306.0 622.2,302.7 622.6,303.6 623.0,303.1 623.4,304.2 623.8,302.5 624.2,302.5 624.7,302.8 625.1,302.8 625.5,304.6 625.9,304.6 626.3,304.1 626.7,303.0 627.1,305.8 627.5,305.6 627.9,304.8 628.3,307.3 628.7,308.2 629.1,306.1 629.5,306.8 629.9,306.6 630.3,304.3 630.7,302.7 631.1,302.6 631.5,299.9 631.9,299.3 632.3,301.0 632.7,300.9 633.1,301.3 633.5,302.3 633.9,303.8 634.3,302.4 634.7,301.1 635.1,300.7 635.5,300.6 635.9,300.4 636.3,301.0 636.7,300.1 637.2,301.0 637.6,300.2 638.0,297.6 638.4,296.6 638.8,297.1 639.2,298.1 639.6,298.6 640.0,299.8 640.4,300.1 640.8,299.5 641.2,301.6 641.6,299.9 642.0,300.1 642.4,299.8 642.8,301.2 643.2,300.3 643.6,299.1 644.0,298.6 644.4,301.2 644.8,299.9 645.2,298.5 645.6,300.1 646.0,300.2 646.4,300.1 646.8,299.2 647.2,298.9 647.6,299.1 648.0,297.5 648.4,295.4 648.8,297.7 649.2,297.8 649.7,297.5 650.1,299.0 650.5,298.5 650.9,296.7 651.3,298.2 651.7,297.5 652.1,299.3 652.5,300.0 652.9,297.4 653.3,297.4 653.7,297.2 654.1,299.8 654.5,297.7 654.9,297.4 655.3,297.1 655.7,296.7 656.1,298.4 656.5,296.7 656.9,296.6 657.3,297.0 657.7,298.1 658.1,297.0 658.5,296.9 658.9,296.0 659.3,294.5 659.7,294.5 660.1,294.6 660.5,295.3 660.9,293.7 661.3,295.5 661.7,293.6 662.2,291.4 662.6,292.3 663.0,289.4 663.4,287.0 663.8,285.7 664.2,286.3 664.6,286.8 665.0,287.1 665.4,286.7 665.8,286.1 666.2,286.2 666.6,286.5 667.0,284.6 667.4,283.0 667.8,282.0 668.2,281.1 668.6,280.2 669.0,281.8 669.4,282.9 669.8,285.8 670.2,285.2 670.6,284.5 671.0,285.5 671.4,289.1 671.8,290.9 672.2,290.2 672.6,291.4 673.0,290.2 673.4,292.0 673.8,290.1 674.2,289.7 674.7,289.6 675.1,286.6 675.5,285.1 675.9,285.9 676.3,286.4 676.7,288.6 677.1,286.8 677.5,286.7 677.9,287.0 678.3,284.4 678.7,284.7 679.1,281.9 679.5,281.6 679.9,279.2 680.3,278.6 680.7,276.5 681.1,276.2 681.5,277.6 681.9,276.5 682.3,274.6 682.7,274.0 683.1,274.7 683.5,277.8 683.9,280.4 684.3,282.5 684.7,283.1 685.1,281.9 685.5,281.6 685.9,284.8 686.3,283.8 686.7,283.4 687.2,280.0 687.6,281.2 688.0,281.1 688.4,278.7 688.8,277.8 689.2,276.4 689.6,275.5 690.0,275.1 690.4,273.9 690.8,275.8 691.2,275.6 691.6,277.7 692.0,278.6 692.4,278.0 692.8,278.4 693.2,278.8 693.6,279.8 694.0,280.2 694.4,280.7 694.8,283.7 695.2,283.8 695.6,285.3 696.0,283.2 696.4,284.9 696.8,285.7 697.2,286.1 697.6,284.2 698.0,283.7 698.4,283.2 698.8,282.7 699.2,286.2 699.7,287.7 700.1,285.9 700.5,286.0 700.9,286.7 701.3,286.3 701.7,284.6 702.1,286.8 702.5,288.5 702.9,287.9 703.3,287.8 703.7,284.9 704.1,285.1 704.5,287.5 704.9,289.7 705.3,292.9 705.7,293.2 706.1,293.6 706.5,293.2 706.9,292.1 707.3,290.3 707.7,290.2 708.1,293.8 708.5,293.0 708.9,291.7 709.3,290.0 709.7,289.0 710.1,290.7 710.5,289.8 710.9,291.1 711.3,290.1 711.7,292.5 712.2,293.6 712.6,292.5 713.0,293.0 713.4,291.5 713.8,292.5 714.2,293.1 714.6,290.9 715.0,290.8 715.4,291.8 715.8,293.7 716.2,292.9 716.6,292.8 717.0,294.4 717.4,295.4 717.8,295.4 718.2,296.2 718.6,297.6 719.0,298.6 719.4,299.7 719.8,299.6 720.2,298.4 720.6,299.0 721.0,300.4 721.4,300.7 721.8,302.0 722.2,302.7 722.6,303.2 723.0,303.3 723.4,304.8 723.8,304.8 724.2,302.9 724.7,304.5 725.1,304.7 725.5,304.8 725.9,304.0 726.3,304.0 726.7,305.5 727.1,305.7 727.5,305.6 727.9,304.6 728.3,307.2 728.7,307.2 729.1,305.0 729.5,305.9 729.9,304.6 730.3,304.7 730.7,304.2 731.1,306.9 731.5,308.8 731.9,308.1 732.3,308.0 732.7,307.4 733.1,308.5 733.5,310.3 733.9,311.1 734.3,311.9 734.7,311.7 735.1,312.1 735.5,312.0 735.9,311.2 736.3,309.9 736.7,311.3 737.2,311.8 737.6,310.8 738.0,309.1 738.4,310.8 738.8,309.7 739.2,308.3 739.6,307.8 740.0,307.0 740.4,307.7 740.8,307.1 741.2,306.7 741.6,306.6 742.0,306.9 742.4,306.1 742.8,306.3 743.2,305.3 743.6,302.0 744.0,303.4 744.4,303.5 744.8,304.7 745.2,303.6 745.6,302.3 746.0,301.2 746.4,300.4 746.8,299.9 747.2,297.9 747.6,300.6 748.0,299.0 748.4,299.3 748.8,297.0 749.2,298.8 749.7,300.1 750.1,300.7 750.5,301.2 750.9,300.2 751.3,299.8 751.7,301.9 752.1,300.4 752.5,300.7 752.9,301.3 753.3,303.0 753.7,303.4 754.1,307.0 754.5,306.6 754.9,308.1 755.3,307.3 755.7,307.2 756.1,305.6 756.5,305.6 756.9,306.5 757.3,306.2 757.7,304.4 758.1,303.2 758.5,304.2 758.9,303.7 759.3,305.4 759.7,305.3 760.1,306.8 760.5,305.5 760.9,304.8 761.3,301.6 761.7,302.7 762.2,303.5 762.6,302.1 763.0,300.9 763.4,301.8 763.8,301.7 764.2,301.2 764.6,301.5 765.0,302.4 765.4,302.5 765.8,304.4 766.2,304.5 766.6,303.9 767.0,303.5 767.4,305.3 767.8,304.7 768.2,304.0 768.6,305.8 769.0,305.4 769.4,307.7 769.8,309.2 770.2,309.9 770.6,308.0 771.0,308.5 771.4,307.5 771.8,307.6 772.2,307.4 772.6,307.3 773.0,305.8 773.4,307.0 773.8,309.3 774.2,310.4 774.7,311.4 775.1,313.2 775.5,312.7 775.9,314.2 776.3,310.6 776.7,312.2 777.1,312.4 777.5,314.0 777.9,314.7 778.3,315.1 778.7,317.2 779.1,317.1 779.5,315.4 779.9,315.7 780.3,315.5 780.7,314.4 781.1,315.2 781.5,316.7 781.9,319.9 782.3,318.6 782.7,319.4 783.1,320.8 783.5,320.1 783.9,320.0 784.3,320.0 784.7,319.6 785.1,320.1 785.5,319.0 785.9,320.7 786.3,321.5 786.7,319.7 787.2,318.5 787.6,319.3 788.0,320.3 788.4,320.3 788.8,320.0 789.2,320.3 789.6,319.9 790.0,319.4 790.4,319.2 790.8,320.5 791.2,321.0 791.6,320.2 792.0,321.6 792.4,322.0 792.8,322.7 793.2,322.4 793.6,322.4 794.0,320.8 794.4,320.9 794.8,321.9 795.2,321.2 795.6,321.5 796.0,321.5 796.4,320.5 796.8,321.6 797.2,320.1 797.6,321.4 798.0,321.2 798.4,321.6 798.8,321.6 799.2,321.0 799.7,320.6 800.1,318.2 800.5,316.0 800.9,317.0 801.3,316.5 801.7,317.3 802.1,318.6 802.5,319.3 802.9,320.0 803.3,320.4 803.7,320.4 804.1,321.0 804.5,320.4 804.9,321.6 805.3,318.5 805.7,319.0 806.1,318.5 806.5,320.2 806.9,319.1 807.3,317.3 807.7,317.2 808.1,318.8 808.5,318.2 808.9,319.2 809.3,318.2 809.7,317.5 810.1,318.1 810.5,321.2 810.9,322.0 811.3,321.4 811.7,320.7 812.2,319.3 812.6,320.3 813.0,319.8 813.4,317.8 813.8,319.9 814.2,320.1 814.6,319.3 815.0,319.1 815.4,320.0 815.8,319.9 816.2,320.4 816.6,320.2 817.0,320.5 817.4,321.2 817.8,321.9 818.2,321.7 818.6,322.1 819.0,321.4 819.4,320.9 819.8,322.7 820.2,322.4 820.6,322.8 821.0,322.4 821.4,320.6 821.8,322.6 822.2,324.7 822.6,325.1 823.0,324.9 823.4,324.3 823.8,324.6 824.2,323.9 824.7,323.4 825.1,323.3 825.5,323.5 825.9,325.2 826.3,324.7 826.7,324.5 827.1,324.3 827.5,324.7 827.9,323.5 828.3,323.5 828.7,321.0 829.1,321.8 829.5,322.4 829.9,321.4 830.3,321.2 830.7,322.4 831.1,322.6 831.5,322.2 831.9,321.7 832.3,321.1 832.7,321.7 833.1,320.0 833.5,320.6 833.9,320.9 834.3,320.3 834.7,319.8 835.1,321.3 835.5,322.4 835.9,324.0 836.3,324.2 836.7,325.4 837.1,326.0 837.6,325.6 838.0,325.1 838.4,325.4 838.8,326.1 839.2,325.2 839.6,324.3 840.0,325.3 840.4,325.4 840.8,323.8 841.2,323.3 841.6,325.1 842.0,325.8 842.4,327.4 842.8,325.7 843.2,324.9 843.6,324.1 844.0,324.1 844.4,324.8 844.8,323.8 845.2,324.1 845.6,323.3 846.0,321.5 846.4,321.7 846.8,322.7 847.2,323.8 847.6,324.0 848.0,325.1 848.4,323.6 848.8,322.1 849.2,320.9 849.6,323.2 850.1,321.7 850.5,320.5 850.9,321.4 851.3,321.0 851.7,322.8 852.1,323.0 852.5,324.5 852.9,324.7 853.3,326.3 853.7,326.1 854.1,325.2 854.5,326.2 854.9,327.7 855.3,328.9 855.7,329.3 856.1,329.9 856.5,331.2 856.9,331.0 857.3,332.0 857.7,332.7 858.1,333.8 858.5,332.7 858.9,332.3 859.3,332.8 859.7,332.2 860.1,333.1 860.5,334.0 860.9,333.6 861.3,333.7 861.7,333.5 862.1,334.2 862.6,333.6 863.0,333.0 863.4,335.7 863.8,335.0 864.2,338.2 864.6,338.5 865.0,338.5 865.4,339.1 865.8,340.0 866.2,341.5 866.6,340.8 867.0,342.7 867.4,341.5 867.8,342.3 868.2,343.0 868.6,343.1 869.0,343.9 869.4,342.4 869.8,341.7 870.2,342.7 870.6,343.4 871.0,344.2 871.4,343.2 871.8,344.0 872.2,343.4 872.6,343.2 873.0,344.2 873.4,344.3 873.8,345.0 874.2,346.2 874.6,345.9 875.1,347.1 875.5,349.5 875.9,350.3 876.3,351.3 876.7,351.2 877.1,351.8 877.5,353.1 877.9,351.3 878.3,351.8 878.7,351.3 879.1,353.0 879.5,353.7 879.9,354.0 880.3,355.4 880.7,355.1 881.1,356.7 881.5,356.6 881.9,357.6 882.3,357.7 882.7,357.8 883.1,357.4 883.5,357.5 883.9,358.4 884.3,358.9 884.7,358.8 885.1,359.0 885.5,359.5 885.9,359.1 886.3,359.8 886.7,359.6 887.1,358.7 887.6,357.4 888.0,358.6 888.4,358.3 888.8,359.5 889.2,359.2 889.6,358.0 890.0,357.5 890.4,357.3 890.8,357.8 891.2,357.8 891.6,357.4 892.0,358.2 892.4,358.5 892.8,358.0 893.2,359.3 893.6,360.3 894.0,361.7 894.4,361.3 894.8,361.4 895.2,361.3 895.6,359.5 896.0,359.7 896.4,358.8 896.8,358.7 897.2,358.8 897.6,359.1 898.0,357.6 898.4,358.0 898.8,359.0 899.2,358.5 899.6,358.6 900.1,359.8 900.5,358.4 900.9,358.1 901.3,358.9 901.7,358.2 902.1,357.5 902.5,358.5 902.9,356.8 903.3,355.9 903.7,355.3 904.1,354.1 904.5,353.8 904.9,353.4 905.3,354.0 905.7,353.7 906.1,353.4 906.5,353.8 906.9,354.0 907.3,353.7 907.7,353.8 908.1,354.4 908.5,355.6 908.9,355.3 909.3,357.3 909.7,357.6 910.1,357.7 910.5,356.6 910.9,356.8 911.3,356.6 911.7,357.1 912.1,356.5 912.6,356.4 913.0,357.1 913.4,356.6 913.8,357.0 914.2,356.9 914.6,355.4 915.0,354.5 915.4,353.0 915.8,353.6 916.2,354.4 916.6,355.6 917.0,354.7 917.4,354.3 917.8,353.6 918.2,354.3 918.6,353.0 919.0,354.6 919.4,353.2 919.8,350.9 920.2,350.0 920.6,350.0 921.0,351.4 921.4,353.2 921.8,353.4 922.2,354.5 922.6,355.0 923.0,353.8 923.4,353.7 923.8,353.0 924.2,353.2 924.6,353.3 925.1,352.9 925.5,352.8 925.9,352.6 926.3,352.5 926.7,352.8 927.1,354.1 927.5,356.0 927.9,356.3 928.3,356.1 928.7,357.3 929.1,357.1 929.5,356.9 929.9,358.6 930.3,359.3 930.7,359.0 931.1,358.1 931.5,358.5 931.9,358.1 932.3,357.6 932.7,357.0 933.1,357.4 933.5,357.4 933.9,358.0 934.3,357.5 934.7,356.4 935.1,355.5 935.5,356.0 935.9,355.9 936.3,356.2 936.7,355.8 937.1,354.9 937.6,355.3 938.0,356.9 938.4,356.3 938.8,356.1 939.2,357.8 939.6,358.3 940.0,357.7 940.4,357.5 940.8,358.1 941.2,357.4 941.6,358.1 942.0,358.8 942.4,358.3 942.8,358.3 943.2,358.1 943.6,357.1 944.0,356.5 944.4,356.3 944.8,356.0 945.2,356.0 945.6,356.1 946.0,356.6 946.4,355.6 946.8,355.0 947.2,355.4 947.6,355.6 948.0,355.6 948.4,355.0 948.8,354.7 949.2,353.0 949.6,353.4 950.1,353.2 950.5,352.9 950.9,353.0 951.3,351.5 951.7,351.5 952.1,351.1 952.5,351.5 952.9,352.1 953.3,352.0 953.7,351.3 954.1,350.4 954.5,349.0 954.9,348.4 955.3,348.7 955.7,346.8 956.1,346.7 956.5,346.5 956.9,346.8 957.3,347.6 957.7,346.9 958.1,346.3 958.5,346.4 958.9,345.5 959.3,344.3 959.7,345.0 960.1,345.9 960.5,345.4 960.9,344.7 961.3,344.5 961.7,344.0 962.1,343.4 962.6,343.8 963.0,344.2 963.4,345.3 963.8,344.2 964.2,343.6 964.6,342.8 965.0,342.1 965.4,339.8 965.8,340.9 966.2,341.5 966.6,341.8 967.0,343.2 967.4,344.4 967.8,345.1 968.2,346.4 968.6,346.5 969.0,346.6 969.4,346.3 969.8,345.7 970.2,345.0 970.6,345.3 971.0,343.3 971.4,343.2 971.8,345.0 972.2,346.9 972.6,347.6 973.0,347.4 973.4,347.0 973.8,346.7 974.2,345.1 974.6,345.3 975.1,344.5 975.5,345.5 975.9,345.7 976.3,345.4 976.7,345.6 977.1,346.5 977.5,346.3 977.9,345.8 978.3,346.3 978.7,346.5 979.1,347.3 979.5,347.8 979.9,347.9 980.3,347.8 980.7,347.5 981.1,348.1 981.5,348.5 981.9,347.7 982.3,346.8 982.7,346.5 983.1,345.9 983.5,345.0 983.9,343.7 984.3,342.4 984.7,343.2 985.1,342.8 985.5,343.5 985.9,344.6 986.3,344.9 986.7,345.7 987.1,345.5 987.6,346.1 988.0,346.5 988.4,347.3 988.8,348.9 989.2,348.9 989.6,349.1 990.0,348.9 990.4,347.1 990.8,346.6 991.2,346.3 991.6,346.3 992.0,347.8 992.4,347.5 992.8,348.2 993.2,348.7 993.6,348.5 994.0,348.0 994.4,349.1 994.8,349.5 995.2,349.2 995.6,349.9 996.0,350.8 996.4,349.7 996.8,350.1 997.2,350.6 997.6,351.5 998.0,351.7 998.4,351.6 998.8,350.2 999.2,351.0 999.6,351.0 1000.1,350.8 1000.5,352.2 1000.9,351.4 1001.3,352.6 1001.7,351.8 1002.1,351.5 1002.5,350.3 1002.9,350.1 1003.3,352.0 1003.7,352.8 1004.1,352.9 1004.5,353.9 1004.9,353.8 1005.3,352.6 1005.7,352.5 1006.1,353.3 1006.5,354.8 1006.9,354.7 1007.3,354.7 1007.7,355.5 1008.1,354.9 1008.5,354.7 1008.9,354.1 1009.3,356.2 1009.7,357.1 1010.1,355.4 1010.5,355.9 1010.9,357.3 1011.3,356.7 1011.7,356.9 1012.1,356.2 1012.6,355.8 1013.0,355.8 1013.4,355.7 1013.8,355.4 1014.2,354.5 1014.6,353.7 1015.0,354.6 1015.4,354.8 1015.8,354.5 1016.2,353.6 1016.6,354.1 1017.0,353.1 1017.4,352.3 1017.8,350.3 1018.2,351.2 1018.6,351.4 1019.0,352.2 1019.4,352.5 1019.8,353.1 1020.2,355.5 1020.6,355.5 1021.0,355.1 1021.4,355.2 1021.8,353.5 1022.2,353.3 1022.6,352.5 1023.0,352.1 1023.4,351.5 1023.8,351.6 1024.2,350.0 1024.6,349.8 1025.1,349.2 1025.5,348.5 1025.9,348.3 1026.3,347.7 1026.7,346.3 1027.1,346.0 1027.5,345.4 1027.9,344.6 1028.3,343.9 1028.7,343.0 1029.1,345.1 1029.5,344.6 1029.9,346.4 1030.3,344.9 1030.7,344.8 1031.1,343.8 1031.5,344.2 1031.9,345.1 1032.3,345.0 1032.7,345.4 1033.1,346.8 1033.5,346.8 1033.9,344.4 1034.3,343.6 1034.7,342.0 1035.1,340.9 1035.5,340.4 1035.9,340.2 1036.3,341.8 1036.7,342.0 1037.1,341.5 1037.6,342.4 1038.0,342.2 1038.4,343.6 1038.8,342.6 1039.2,342.3 1039.6,341.6 1040.0,341.2 1040.4,341.1 1040.8,341.0 1041.2,342.7 1041.6,344.4 1042.0,344.4 1042.4,345.0 1042.8,343.9 1043.2,342.1 1043.6,340.6 1044.0,341.1 1044.4,341.1 1044.8,341.5 1045.2,339.3 1045.6,337.3 1046.0,336.4 1046.4,336.9 1046.8,337.5 1047.2,336.5 1047.6,337.5 1048.0,337.2 1048.4,337.0 1048.8,335.6 1049.2,336.3 1049.6,338.5 1050.0,337.3 1050.5,337.6 1050.9,337.2 1051.3,337.3 1051.7,337.2 1052.1,336.1 1052.5,338.3 1052.9,338.5 1053.3,338.0 1053.7,338.2 1054.1,340.1 1054.5,339.5 1054.9,338.8 1055.3,338.9 1055.7,340.8 1056.1,339.9 1056.5,341.1 1056.9,340.5 1057.3,341.2 1057.7,341.2 1058.1,341.4 1058.5,341.6 1058.9,341.5 1059.3,340.8 1059.7,340.6 1060.1,340.0 1060.5,338.7 1060.9,339.1 1061.3,339.6 1061.7,341.8 1062.1,341.8 1062.5,342.3 1063.0,344.4 1063.4,344.8 1063.8,346.1 1064.2,345.0 1064.6,346.5 1065.0,347.5 1065.4,346.1 1065.8,345.7 1066.2,346.3 1066.6,347.0 1067.0,346.0 1067.4,347.6 1067.8,349.2 1068.2,349.0 1068.6,348.3 1069.0,348.3 1069.4,348.1 1069.8,347.2 1070.2,345.4 1070.6,346.4 1071.0,346.4 1071.4,344.7 1071.8,345.8 1072.2,345.4 1072.6,346.4 1073.0,346.9 1073.4,346.6 1073.8,347.5 1074.2,348.3 1074.6,347.6 1075.0,346.7 1075.5,346.7 1075.9,347.0 1076.3,346.6 1076.7,347.6 1077.1,346.5 1077.5,346.3 1077.9,343.8 1078.3,343.6 1078.7,344.4 1079.1,344.6 1079.5,344.0 1079.9,344.9 1080.3,345.2 1080.7,344.7 1081.1,345.9 1081.5,346.5 1081.9,346.7 1082.3,345.1 1082.7,345.6 1083.1,346.9 1083.5,348.4 1083.9,349.1 1084.3,350.1 1084.7,350.0 1085.1,350.8 1085.5,350.9 1085.9,351.3 1086.3,351.6 1086.7,350.5 1087.1,349.8 1087.5,349.2 1088.0,348.5 1088.4,348.6 1088.8,348.4 1089.2,348.2 1089.6,348.5 1090.0,348.6 1090.4,350.4 1090.8,350.0 1091.2,349.5 1091.6,349.7 1092.0,348.8 1092.4,349.9 1092.8,349.8 1093.2,350.7 1093.6,351.1 1094.0,351.2 1094.4,351.7 1094.8,351.5 1095.2,350.3 1095.6,351.0 1096.0,350.9 1096.4,351.8 1096.8,351.2 1097.2,352.3 1097.6,351.3 1098.0,349.4 1098.4,349.7 1098.8,350.8 1099.2,351.0 1099.6,349.5 1100.0,349.8 1100.5,350.4 1100.9,350.6 1101.3,350.3 1101.7,349.5 1102.1,348.6 1102.5,347.6 1102.9,347.3 1103.3,346.6 1103.7,346.8 1104.1,347.6 1104.5,346.8 1104.9,346.3 1105.3,345.3 1105.7,344.7 1106.1,346.0 1106.5,346.0 1106.9,344.9 1107.3,344.5 1107.7,346.4 1108.1,346.7 1108.5,346.2 1108.9,345.8 1109.3,347.3 1109.7,345.6 1110.1,345.5 1110.5,345.8 1110.9,346.1 1111.3,344.5 1111.7,345.3 1112.1,344.6 1112.5,344.4 1113.0,343.9 1113.4,343.6 1113.8,343.5 1114.2,343.9 1114.6,344.7 1115.0,346.0 1115.4,346.3 1115.8,346.2 1116.2,345.6 1116.6,345.0 1117.0,345.2 1117.4,344.0 1117.8,344.3 1118.2,344.2 1118.6,344.6 1119.0,343.5 1119.4,345.2 1119.8,344.6 1120.2,345.8 1120.6,345.9 1121.0,346.4 1121.4,348.3 1121.8,348.2 1122.2,349.3 1122.6,350.6 1123.0,348.9 1123.4,347.9 1123.8,347.2 1124.2,347.1 1124.6,347.1 1125.0,346.1 1125.5,344.2 1125.9,343.5 1126.3,345.5 1126.7,345.5 1127.1,345.7 1127.5,346.7 1127.9,346.2 1128.3,343.7 1128.7,343.4 1129.1,341.5 1129.5,341.9 1129.9,342.2 1130.3,342.2 1130.7,343.4 1131.1,344.1 1131.5,342.6 1131.9,341.1 1132.3,342.1 1132.7,341.2 1133.1,341.4 1133.5,341.1 1133.9,340.8 1134.3,339.9 1134.7,339.6 1135.1,338.6 1135.5,337.7 1135.9,337.2 1136.3,338.4 1136.7,336.6 1137.1,336.6 1137.5,336.8 1138.0,338.7 1138.4,340.0 1138.8,339.0 1139.2,338.7 1139.6,340.6 1140.0,340.7 1140.4,341.1 1140.8,339.8 1141.2,339.8 1141.6,339.4 1142.0,338.4 1142.4,339.1 1142.8,339.5 1143.2,340.1 1143.6,339.5 1144.0,340.2" fill="none" stroke="#2367C9" stroke-width="2.6"/>
<text x="58.0" y="444.0" class="panel-title" text-anchor="start">Drawdown</text>
<line x1="92.0" y1="610.0" x2="1144.0" y2="610.0" class="grid"/>
<text x="80.0" y="614.0" class="muted" text-anchor="end">-75.4%</text>
<line x1="92.0" y1="539.0" x2="1144.0" y2="539.0" class="grid"/>
<text x="80.0" y="543.0" class="muted" text-anchor="end">-37.7%</text>
<line x1="92.0" y1="468.0" x2="1144.0" y2="468.0" class="grid"/>
<text x="80.0" y="472.0" class="muted" text-anchor="end">-0.0%</text>
<polygon points="92.0,468.0 92.0,468.0 92.4,470.8 92.8,470.8 93.2,469.6 93.6,473.0 94.0,474.9 94.4,472.9 94.8,473.0 95.2,472.1 95.6,474.2 96.0,472.8 96.4,470.8 96.8,470.7 97.2,468.0 97.6,468.0 98.0,468.9 98.5,468.0 98.9,469.2 99.3,468.0 99.7,468.4 100.1,468.7 100.5,470.2 100.9,468.0 101.3,468.7 101.7,468.9 102.1,469.9 102.5,468.3 102.9,468.4 103.3,468.4 103.7,468.0 104.1,468.0 104.5,469.4 104.9,469.2 105.3,470.1 105.7,468.4 106.1,468.0 106.5,468.0 106.9,469.8 107.3,470.5 107.7,469.6 108.1,468.2 108.5,468.7 108.9,470.6 109.3,469.0 109.7,470.0 110.1,471.0 110.5,470.4 111.0,470.0 111.4,470.5 111.8,470.0 112.2,470.5 112.6,469.7 113.0,471.7 113.4,472.0 113.8,473.1 114.2,474.2 114.6,474.9 115.0,473.8 115.4,475.2 115.8,474.1 116.2,475.9 116.6,477.5 117.0,476.6 117.4,474.6 117.8,473.4 118.2,470.2 118.6,470.4 119.0,471.4 119.4,469.8 119.8,470.0 120.2,471.4 120.6,472.9 121.0,474.1 121.4,473.9 121.8,473.1 122.2,471.1 122.6,471.7 123.0,472.6 123.5,471.9 123.9,472.2 124.3,471.4 124.7,472.2 125.1,472.1 125.5,473.8 125.9,476.2 126.3,475.4 126.7,477.1 127.1,479.1 127.5,478.6 127.9,477.6 128.3,475.8 128.7,476.8 129.1,478.0 129.5,478.1 129.9,479.6 130.3,481.4 130.7,483.3 131.1,484.9 131.5,484.2 131.9,484.8 132.3,486.1 132.7,483.8 133.1,483.7 133.5,483.4 133.9,483.4 134.3,483.9 134.7,486.2 135.1,485.7 135.5,484.6 136.0,486.8 136.4,487.1 136.8,486.8 137.2,487.5 137.6,490.3 138.0,489.7 138.4,492.0 138.8,491.5 139.2,490.8 139.6,488.3 140.0,488.5 140.4,490.5 140.8,490.0 141.2,489.6 141.6,487.5 142.0,486.3 142.4,486.8 142.8,485.1 143.2,486.2 143.6,487.2 144.0,489.1 144.4,489.9 144.8,491.4 145.2,491.1 145.6,491.6 146.0,493.3 146.4,493.9 146.8,493.8 147.2,492.6 147.6,490.9 148.0,486.7 148.5,486.0 148.9,487.4 149.3,490.6 149.7,491.1 150.1,492.4 150.5,493.7 150.9,494.3 151.3,494.8 151.7,493.7 152.1,493.3 152.5,494.4 152.9,495.1 153.3,496.8 153.7,496.9 154.1,496.5 154.5,493.8 154.9,493.4 155.3,491.3 155.7,492.8 156.1,493.1 156.5,494.5 156.9,495.5 157.3,494.0 157.7,493.5 158.1,492.9 158.5,494.5 158.9,493.0 159.3,492.9 159.7,493.4 160.1,493.9 160.5,494.9 161.0,494.7 161.4,495.6 161.8,497.5 162.2,498.6 162.6,498.1 163.0,496.9 163.4,496.9 163.8,496.5 164.2,497.3 164.6,494.5 165.0,495.2 165.4,495.6 165.8,494.4 166.2,495.3 166.6,493.0 167.0,491.6 167.4,492.7 167.8,494.1 168.2,492.1 168.6,490.3 169.0,490.9 169.4,491.9 169.8,490.5 170.2,492.0 170.6,492.1 171.0,491.1 171.4,492.2 171.8,492.6 172.2,492.5 172.6,492.5 173.0,491.2 173.5,490.7 173.9,490.2 174.3,493.9 174.7,494.7 175.1,495.6 175.5,497.5 175.9,497.5 176.3,497.7 176.7,495.8 177.1,498.1 177.5,499.2 177.9,499.6 178.3,500.4 178.7,499.3 179.1,498.8 179.5,498.1 179.9,498.5 180.3,500.0 180.7,500.2 181.1,500.6 181.5,500.6 181.9,502.4 182.3,502.3 182.7,501.4 183.1,498.7 183.5,496.3 183.9,496.5 184.3,497.2 184.7,499.9 185.1,500.7 185.5,500.7 186.0,498.4 186.4,498.0 186.8,499.6 187.2,502.9 187.6,503.7 188.0,505.3 188.4,506.5 188.8,506.6 189.2,507.0 189.6,509.1 190.0,510.4 190.4,508.8 190.8,511.0 191.2,513.5 191.6,511.0 192.0,507.2 192.4,508.4 192.8,508.8 193.2,508.5 193.6,506.4 194.0,508.0 194.4,508.9 194.8,508.5 195.2,507.9 195.6,507.3 196.0,508.5 196.4,509.9 196.8,510.4 197.2,510.2 197.6,510.5 198.0,510.6 198.4,509.3 198.9,508.6 199.3,507.8 199.7,506.3 200.1,506.9 200.5,506.4 200.9,508.0 201.3,507.9 201.7,508.2 202.1,506.2 202.5,504.8 202.9,503.2 203.3,504.3 203.7,505.0 204.1,503.9 204.5,503.0 204.9,503.0 205.3,505.5 205.7,503.5 206.1,502.5 206.5,503.4 206.9,503.7 207.3,502.6 207.7,501.7 208.1,501.9 208.5,501.8 208.9,501.9 209.3,501.8 209.7,500.2 210.1,503.4 210.5,504.2 210.9,503.9 211.4,502.8 211.8,503.5 212.2,505.3 212.6,504.9 213.0,502.9 213.4,504.7 213.8,504.6 214.2,504.6 214.6,504.7 215.0,507.5 215.4,507.5 215.8,506.5 216.2,504.9 216.6,503.0 217.0,501.1 217.4,500.8 217.8,498.3 218.2,497.9 218.6,497.2 219.0,498.3 219.4,498.0 219.8,497.8 220.2,497.2 220.6,498.6 221.0,497.1 221.4,497.6 221.8,497.2 222.2,496.2 222.6,494.1 223.0,492.4 223.4,495.4 223.9,495.6 224.3,496.4 224.7,497.7 225.1,496.1 225.5,495.9 225.9,496.3 226.3,497.6 226.7,496.0 227.1,496.5 227.5,496.9 227.9,497.2 228.3,494.9 228.7,493.5 229.1,496.2 229.5,495.2 229.9,494.9 230.3,494.1 230.7,492.1 231.1,495.4 231.5,495.9 231.9,494.8 232.3,496.1 232.7,494.2 233.1,493.8 233.5,493.9 233.9,495.1 234.3,493.5 234.7,492.8 235.1,492.1 235.5,491.1 235.9,491.1 236.4,492.9 236.8,492.7 237.2,493.8 237.6,492.7 238.0,490.8 238.4,492.1 238.8,491.8 239.2,490.2 239.6,490.6 240.0,490.6 240.4,490.0 240.8,488.4 241.2,487.8 241.6,486.0 242.0,486.0 242.4,484.5 242.8,485.1 243.2,482.4 243.6,482.6 244.0,483.7 244.4,481.7 244.8,484.2 245.2,483.5 245.6,481.4 246.0,484.1 246.4,486.4 246.8,488.5 247.2,489.5 247.6,488.0 248.0,486.6 248.4,485.4 248.9,487.0 249.3,491.6 249.7,492.9 250.1,492.7 250.5,492.9 250.9,491.5 251.3,491.0 251.7,489.9 252.1,490.1 252.5,489.5 252.9,490.1 253.3,489.4 253.7,488.3 254.1,486.9 254.5,487.2 254.9,487.3 255.3,487.1 255.7,487.7 256.1,485.2 256.5,487.9 256.9,489.8 257.3,491.8 257.7,494.5 258.1,495.5 258.5,494.9 258.9,494.8 259.3,494.2 259.7,492.4 260.1,491.1 260.5,490.8 260.9,489.8 261.4,490.2 261.8,490.3 262.2,489.2 262.6,491.6 263.0,493.0 263.4,493.0 263.8,491.1 264.2,489.2 264.6,491.2 265.0,490.3 265.4,491.5 265.8,491.4 266.2,491.5 266.6,493.9 267.0,492.5 267.4,492.5 267.8,493.3 268.2,495.4 268.6,495.7 269.0,494.8 269.4,495.2 269.8,496.3 270.2,495.7 270.6,493.1 271.0,493.2 271.4,494.6 271.8,493.9 272.2,494.0 272.6,491.6 273.0,491.8 273.4,490.8 273.9,489.8 274.3,487.2 274.7,484.1 275.1,483.9 275.5,483.2 275.9,481.8 276.3,482.7 276.7,482.4 277.1,483.1 277.5,482.5 277.9,483.0 278.3,484.6 278.7,488.2 279.1,490.0 279.5,490.1 279.9,489.6 280.3,486.7 280.7,485.0 281.1,487.2 281.5,487.2 281.9,487.3 282.3,487.8 282.7,487.2 283.1,486.8 283.5,487.1 283.9,487.1 284.3,489.4 284.7,488.5 285.1,484.6 285.5,484.2 285.9,482.2 286.4,482.2 286.8,481.8 287.2,481.3 287.6,482.1 288.0,483.2 288.4,483.2 288.8,484.8 289.2,484.1 289.6,483.1 290.0,481.9 290.4,483.6 290.8,483.5 291.2,483.0 291.6,480.3 292.0,482.2 292.4,483.8 292.8,486.4 293.2,488.5 293.6,486.7 294.0,485.5 294.4,486.8 294.8,488.8 295.2,491.4 295.6,491.1 296.0,489.4 296.4,488.8 296.8,489.2 297.2,488.5 297.6,491.2 298.0,491.4 298.4,492.0 298.9,491.7 299.3,490.6 299.7,491.0 300.1,490.3 300.5,490.3 300.9,489.6 301.3,487.0 301.7,488.1 302.1,490.0 302.5,487.3 302.9,488.3 303.3,486.3 303.7,487.0 304.1,485.6 304.5,486.0 304.9,485.1 305.3,483.2 305.7,483.6 306.1,484.9 306.5,486.3 306.9,485.0 307.3,486.2 307.7,485.0 308.1,485.0 308.5,484.7 308.9,487.6 309.3,488.3 309.7,491.2 310.1,492.1 310.5,491.1 310.9,490.1 311.4,489.8 311.8,490.0 312.2,490.9 312.6,492.2 313.0,490.6 313.4,490.4 313.8,490.4 314.2,489.6 314.6,489.5 315.0,486.5 315.4,487.1 315.8,487.0 316.2,486.8 316.6,488.6 317.0,489.5 317.4,490.2 317.8,489.4 318.2,490.0 318.6,490.5 319.0,491.3 319.4,490.0 319.8,490.1 320.2,490.2 320.6,491.0 321.0,489.6 321.4,490.0 321.8,491.8 322.2,491.0 322.6,490.6 323.0,492.3 323.4,492.3 323.9,493.3 324.3,491.0 324.7,490.2 325.1,490.4 325.5,490.0 325.9,493.5 326.3,495.2 326.7,496.5 327.1,498.3 327.5,496.9 327.9,494.6 328.3,496.1 328.7,497.0 329.1,496.9 329.5,496.2 329.9,496.9 330.3,497.0 330.7,494.4 331.1,496.0 331.5,498.4 331.9,497.5 332.3,497.7 332.7,496.5 333.1,495.4 333.5,498.1 333.9,496.5 334.3,497.4 334.7,496.3 335.1,497.2 335.5,498.9 335.9,498.5 336.4,496.8 336.8,497.1 337.2,499.6 337.6,498.5 338.0,499.4 338.4,498.9 338.8,500.8 339.2,499.8 339.6,499.8 340.0,500.9 340.4,500.3 340.8,500.1 341.2,501.3 341.6,498.3 342.0,499.0 342.4,498.9 342.8,498.6 343.2,499.4 343.6,498.4 344.0,499.5 344.4,499.9 344.8,498.8 345.2,500.5 345.6,503.6 346.0,501.6 346.4,498.5 346.8,498.4 347.2,500.6 347.6,500.8 348.0,501.0 348.4,500.6 348.9,502.5 349.3,501.6 349.7,500.7 350.1,502.3 350.5,499.9 350.9,498.1 351.3,498.5 351.7,498.4 352.1,497.8 352.5,495.7 352.9,497.6 353.3,497.5 353.7,497.9 354.1,494.9 354.5,495.1 354.9,493.9 355.3,495.6 355.7,494.8 356.1,493.5 356.5,495.0 356.9,495.0 357.3,492.4 357.7,492.8 358.1,495.2 358.5,494.9 358.9,495.1 359.3,495.8 359.7,496.4 360.1,498.3 360.5,499.7 360.9,498.9 361.4,500.2 361.8,504.0 362.2,503.1 362.6,502.8 363.0,503.2 363.4,504.0 363.8,503.9 364.2,503.4 364.6,500.6 365.0,500.3 365.4,500.2 365.8,500.7 366.2,499.3 366.6,499.2 367.0,498.2 367.4,499.2 367.8,500.1 368.2,500.0 368.6,498.9 369.0,496.5 369.4,497.7 369.8,498.9 370.2,498.5 370.6,498.8 371.0,497.5 371.4,499.4 371.8,500.8 372.2,500.8 372.6,503.6 373.0,505.3 373.4,506.4 373.9,507.3 374.3,505.1 374.7,504.8 375.1,506.2 375.5,506.1 375.9,505.0 376.3,506.6 376.7,507.8 377.1,507.0 377.5,507.6 377.9,506.3 378.3,505.2 378.7,503.5 379.1,504.9 379.5,504.1 379.9,504.2 380.3,505.2 380.7,506.3 381.1,504.5 381.5,504.4 381.9,506.3 382.3,506.6 382.7,504.9 383.1,507.6 383.5,509.7 383.9,509.9 384.3,508.8 384.7,508.2 385.1,508.2 385.5,509.2 385.9,510.5 386.4,510.0 386.8,511.4 387.2,510.5 387.6,510.7 388.0,510.3 388.4,509.8 388.8,509.6 389.2,508.5 389.6,511.2 390.0,514.2 390.4,513.8 390.8,512.7 391.2,514.1 391.6,516.9 392.0,517.4 392.4,516.7 392.8,514.7 393.2,513.7 393.6,513.3 394.0,513.7 394.4,513.0 394.8,512.6 395.2,512.9 395.6,510.3 396.0,509.4 396.4,508.1 396.8,508.0 397.2,506.9 397.6,506.5 398.0,507.2 398.4,505.9 398.9,504.9 399.3,503.8 399.7,503.2 400.1,502.4 400.5,504.3 400.9,503.7 401.3,505.0 401.7,506.8 402.1,504.7 402.5,502.9 402.9,500.5 403.3,500.7 403.7,499.6 404.1,500.0 404.5,500.4 404.9,501.7 405.3,501.0 405.7,500.8 406.1,503.0 406.5,502.9 406.9,502.3 407.3,500.9 407.7,500.5 408.1,499.6 408.5,499.9 408.9,499.3 409.3,499.8 409.7,500.3 410.1,501.0 410.5,500.9 410.9,501.7 411.3,500.1 411.8,499.4 412.2,502.3 412.6,502.7 413.0,501.3 413.4,500.5 413.8,499.3 414.2,500.1 414.6,501.2 415.0,501.8 415.4,502.1 415.8,502.1 416.2,500.0 416.6,500.2 417.0,499.4 417.4,501.4 417.8,501.4 418.2,501.5 418.6,502.2 419.0,504.3 419.4,504.3 419.8,504.2 420.2,504.3 420.6,503.9 421.0,504.0 421.4,503.6 421.8,503.5 422.2,504.1 422.6,504.5 423.0,502.2 423.4,504.8 423.8,507.7 424.3,509.3 424.7,509.5 425.1,508.9 425.5,509.2 425.9,508.9 426.3,511.8 426.7,511.2 427.1,509.2 427.5,510.7 427.9,510.6 428.3,510.8 428.7,511.2 429.1,512.2 429.5,509.6 429.9,507.4 430.3,507.8 430.7,506.0 431.1,506.6 431.5,504.6 431.9,504.6 432.3,504.5 432.7,503.8 433.1,500.8 433.5,500.5 433.9,500.5 434.3,498.8 434.7,499.3 435.1,499.4 435.5,499.2 435.9,500.2 436.3,499.6 436.8,499.6 437.2,499.2 437.6,498.0 438.0,500.6 438.4,499.1 438.8,501.2 439.2,503.9 439.6,503.8 440.0,504.4 440.4,505.0 440.8,503.8 441.2,506.1 441.6,507.3 442.0,508.0 442.4,507.3 442.8,506.7 443.2,508.5 443.6,507.4 444.0,508.4 444.4,510.4 444.8,512.3 445.2,511.8 445.6,511.9 446.0,512.0 446.4,512.8 446.8,512.4 447.2,510.8 447.6,512.6 448.0,512.9 448.4,514.0 448.8,513.9 449.3,513.3 449.7,514.4 450.1,516.2 450.5,518.9 450.9,518.9 451.3,518.5 451.7,519.2 452.1,519.1 452.5,519.8 452.9,518.8 453.3,519.2 453.7,520.5 454.1,520.8 454.5,522.0 454.9,521.4 455.3,521.3 455.7,522.2 456.1,520.4 456.5,520.8 456.9,518.7 457.3,519.3 457.7,521.3 458.1,520.8 458.5,521.4 458.9,521.7 459.3,520.7 459.7,520.5 460.1,522.4 460.5,520.9 460.9,519.5 461.3,517.9 461.8,517.7 462.2,516.4 462.6,517.9 463.0,518.4 463.4,519.7 463.8,519.1 464.2,519.5 464.6,519.4 465.0,518.2 465.4,518.8 465.8,519.6 466.2,520.1 466.6,520.3 467.0,520.5 467.4,520.5 467.8,519.7 468.2,518.5 468.6,517.7 469.0,517.1 469.4,518.8 469.8,518.7 470.2,517.2 470.6,516.1 471.0,515.6 471.4,515.3 471.8,515.3 472.2,513.8 472.6,513.6 473.0,514.2 473.4,513.7 473.8,517.6 474.3,517.0 474.7,521.1 475.1,523.0 475.5,522.4 475.9,521.7 476.3,523.7 476.7,524.5 477.1,523.7 477.5,525.0 477.9,522.6 478.3,522.5 478.7,521.7 479.1,519.5 479.5,519.7 479.9,521.1 480.3,520.8 480.7,521.3 481.1,523.2 481.5,522.8 481.9,523.7 482.3,522.7 482.7,522.3 483.1,522.0 483.5,521.7 483.9,521.3 484.3,520.3 484.7,521.1 485.1,522.4 485.5,522.0 485.9,522.7 486.3,524.8 486.8,524.3 487.2,523.1 487.6,524.7 488.0,524.4 488.4,524.5 488.8,523.8 489.2,523.6 489.6,525.9 490.0,526.6 490.4,526.9 490.8,527.7 491.2,526.5 491.6,525.4 492.0,523.5 492.4,522.4 492.8,522.7 493.2,522.4 493.6,521.7 494.0,522.2 494.4,521.9 494.8,522.4 495.2,522.3 495.6,524.4 496.0,524.7 496.4,523.8 496.8,523.5 497.2,522.6 497.6,521.8 498.0,521.4 498.4,520.6 498.8,520.5 499.3,522.3 499.7,521.2 500.1,522.0 500.5,524.3 500.9,526.2 501.3,526.8 501.7,526.4 502.1,526.5 502.5,525.6 502.9,524.5 503.3,523.0 503.7,522.4 504.1,521.7 504.5,521.9 504.9,525.0 505.3,525.2 505.7,527.6 506.1,527.5 506.5,527.9 506.9,527.5 507.3,525.7 507.7,525.1 508.1,525.0 508.5,524.3 508.9,525.0 509.3,525.1 509.7,523.8 510.1,525.2 510.5,524.2 510.9,522.7 511.3,524.6 511.8,524.0 512.2,523.6 512.6,524.3 513.0,524.9 513.4,526.7 513.8,526.8 514.2,526.2 514.6,527.1 515.0,526.6 515.4,528.5 515.8,528.9 516.2,528.9 516.6,526.1 517.0,528.8 517.4,528.2 517.8,527.8 518.2,527.2 518.6,527.3 519.0,526.6 519.4,525.9 519.8,525.0 520.2,525.5 520.6,524.8 521.0,525.6 521.4,525.3 521.8,526.3 522.2,524.8 522.6,522.9 523.0,523.2 523.4,523.7 523.8,524.6 524.3,525.1 524.7,527.1 525.1,528.2 525.5,528.2 525.9,526.3 526.3,523.2 526.7,522.8 527.1,521.5 527.5,521.7 527.9,521.6 528.3,520.6 528.7,520.1 529.1,520.1 529.5,521.5 529.9,523.1 530.3,525.3 530.7,524.3 531.1,524.7 531.5,524.7 531.9,525.2 532.3,524.1 532.7,523.3 533.1,523.5 533.5,522.3 533.9,520.8 534.3,520.2 534.7,518.7 535.1,518.0 535.5,516.7 535.9,517.7 536.3,517.0 536.8,516.3 537.2,517.8 537.6,515.8 538.0,517.6 538.4,518.9 538.8,518.0 539.2,517.3 539.6,516.0 540.0,515.6 540.4,516.8 540.8,517.4 541.2,518.0 541.6,518.6 542.0,516.7 542.4,516.9 542.8,517.2 543.2,518.1 543.6,517.0 544.0,516.3 544.4,518.1 544.8,518.0 545.2,518.3 545.6,518.3 546.0,515.6 546.4,516.6 546.8,517.7 547.2,519.7 547.6,521.6 548.0,521.9 548.4,522.0 548.8,521.1 549.3,521.1 549.7,519.9 550.1,519.9 550.5,519.6 550.9,520.3 551.3,519.2 551.7,516.8 552.1,519.7 552.5,521.5 552.9,521.8 553.3,521.4 553.7,520.2 554.1,520.5 554.5,520.1 554.9,518.2 555.3,516.8 555.7,516.3 556.1,514.9 556.5,514.9 556.9,514.8 557.3,513.8 557.7,514.1 558.1,514.1 558.5,513.1 558.9,515.6 559.3,517.1 559.7,517.8 560.1,516.9 560.5,517.0 560.9,518.9 561.3,520.0 561.8,521.1 562.2,518.8 562.6,516.4 563.0,517.2 563.4,517.9 563.8,519.2 564.2,521.9 564.6,522.2 565.0,522.1 565.4,523.3 565.8,525.0 566.2,525.7 566.6,525.7 567.0,525.3 567.4,524.6 567.8,526.2 568.2,525.5 568.6,526.4 569.0,525.7 569.4,525.8 569.8,527.4 570.2,527.1 570.6,527.5 571.0,528.3 571.4,528.1 571.8,526.5 572.2,526.1 572.6,526.6 573.0,526.1 573.4,525.0 573.8,523.0 574.3,523.7 574.7,524.7 575.1,523.4 575.5,524.4 575.9,525.7 576.3,526.4 576.7,526.6 577.1,526.4 577.5,527.5 577.9,528.1 578.3,529.4 578.7,529.7 579.1,528.0 579.5,528.5 579.9,526.8 580.3,527.4 580.7,527.8 581.1,528.8 581.5,532.8 581.9,534.7 582.3,536.3 582.7,538.7 583.1,540.2 583.5,538.5 583.9,538.1 584.3,536.3 584.7,536.6 585.1,536.2 585.5,536.7 585.9,536.8 586.3,536.8 586.8,537.7 587.2,536.9 587.6,536.2 588.0,537.2 588.4,538.4 588.8,540.2 589.2,540.6 589.6,539.9 590.0,540.0 590.4,539.5 590.8,539.0 591.2,538.3 591.6,537.3 592.0,536.7 592.4,537.3 592.8,536.4 593.2,536.4 593.6,535.2 594.0,535.1 594.4,534.8 594.8,536.7 595.2,537.6 595.6,538.7 596.0,537.5 596.4,536.8 596.8,537.7 597.2,537.3 597.6,538.9 598.0,539.1 598.4,537.9 598.8,537.8 599.3,536.3 599.7,536.9 600.1,536.7 600.5,536.2 600.9,535.9 601.3,536.1 601.7,536.1 602.1,536.9 602.5,537.5 602.9,536.8 603.3,536.6 603.7,536.3 604.1,535.2 604.5,533.4 604.9,533.9 605.3,533.5 605.7,534.5 606.1,534.3 606.5,535.2 606.9,534.2 607.3,534.6 607.7,534.9 608.1,534.2 608.5,536.1 608.9,538.1 609.3,537.5 609.7,537.3 610.1,537.1 610.5,537.7 610.9,537.5 611.3,535.7 611.8,535.6 612.2,535.7 612.6,536.5 613.0,536.5 613.4,538.9 613.8,538.5 614.2,538.1 614.6,540.2 615.0,541.4 615.4,543.0 615.8,544.4 616.2,544.3 616.6,546.0 617.0,545.1 617.4,543.6 617.8,543.9 618.2,546.5 618.6,547.5 619.0,546.7 619.4,549.4 619.8,549.8 620.2,551.2 620.6,550.2 621.0,551.3 621.4,550.6 621.8,550.9 622.2,548.5 622.6,549.1 623.0,548.8 623.4,549.6 623.8,548.3 624.2,548.3 624.7,548.6 625.1,548.6 625.5,549.9 625.9,549.9 626.3,549.5 626.7,548.7 627.1,550.7 627.5,550.6 627.9,550.0 628.3,551.8 628.7,552.5 629.1,550.9 629.5,551.5 629.9,551.3 630.3,549.7 630.7,548.5 631.1,548.4 631.5,546.5 631.9,546.0 632.3,547.3 632.7,547.2 633.1,547.5 633.5,548.2 633.9,549.2 634.3,548.3 634.7,547.3 635.1,547.0 635.5,546.9 635.9,546.8 636.3,547.2 636.7,546.6 637.2,547.2 637.6,546.6 638.0,544.7 638.4,544.1 638.8,544.4 639.2,545.1 639.6,545.5 640.0,546.4 640.4,546.6 640.8,546.2 641.2,547.7 641.6,546.4 642.0,546.6 642.4,546.4 642.8,547.4 643.2,546.7 643.6,545.8 644.0,545.5 644.4,547.4 644.8,546.4 645.2,545.4 645.6,546.6 646.0,546.7 646.4,546.6 646.8,545.9 647.2,545.7 647.6,545.9 648.0,544.7 648.4,543.1 648.8,544.9 649.2,544.9 649.7,544.7 650.1,545.8 650.5,545.4 650.9,544.1 651.3,545.2 651.7,544.7 652.1,546.0 652.5,546.5 652.9,544.6 653.3,544.6 653.7,544.5 654.1,546.4 654.5,544.9 654.9,544.6 655.3,544.4 655.7,544.1 656.1,545.3 656.5,544.1 656.9,544.1 657.3,544.3 657.7,545.2 658.1,544.3 658.5,544.2 658.9,543.6 659.3,542.5 659.7,542.5 660.1,542.5 660.5,543.1 660.9,541.9 661.3,543.2 661.7,541.9 662.2,540.2 662.6,540.9 663.0,538.8 663.4,537.0 663.8,536.1 664.2,536.5 664.6,536.9 665.0,537.1 665.4,536.8 665.8,536.4 666.2,536.4 666.6,536.6 667.0,535.3 667.4,534.1 667.8,533.4 668.2,532.7 668.6,532.1 669.0,533.3 669.4,534.1 669.8,536.2 670.2,535.8 670.6,535.2 671.0,536.0 671.4,538.5 671.8,539.9 672.2,539.3 672.6,540.2 673.0,539.3 673.4,540.7 673.8,539.3 674.2,539.0 674.7,538.9 675.1,536.7 675.5,535.7 675.9,536.2 676.3,536.6 676.7,538.2 677.1,536.9 677.5,536.8 677.9,537.0 678.3,535.2 678.7,535.4 679.1,533.3 679.5,533.1 679.9,531.3 680.3,530.9 680.7,529.4 681.1,529.2 681.5,530.2 681.9,529.4 682.3,528.0 682.7,527.5 683.1,528.0 683.5,530.3 683.9,532.2 684.3,533.7 684.7,534.2 685.1,533.3 685.5,533.1 685.9,535.5 686.3,534.7 686.7,534.4 687.2,531.9 687.6,532.8 688.0,532.7 688.4,531.0 688.8,530.4 689.2,529.3 689.6,528.7 690.0,528.4 690.4,527.5 690.8,528.9 691.2,528.7 691.6,530.2 692.0,530.9 692.4,530.4 692.8,530.8 693.2,531.1 693.6,531.8 694.0,532.1 694.4,532.5 694.8,534.6 695.2,534.7 695.6,535.8 696.0,534.3 696.4,535.5 696.8,536.1 697.2,536.4 697.6,535.0 698.0,534.6 698.4,534.3 698.8,533.9 699.2,536.5 699.7,537.5 700.1,536.2 700.5,536.3 700.9,536.8 701.3,536.5 701.7,535.3 702.1,536.9 702.5,538.1 702.9,537.7 703.3,537.6 703.7,535.5 704.1,535.7 704.5,537.4 704.9,539.0 705.3,541.3 705.7,541.6 706.1,541.8 706.5,541.6 706.9,540.8 707.3,539.5 707.7,539.4 708.1,542.0 708.5,541.4 708.9,540.4 709.3,539.2 709.7,538.5 710.1,539.7 710.5,539.0 710.9,540.0 711.3,539.3 711.7,541.1 712.2,541.8 712.6,541.0 713.0,541.4 713.4,540.3 713.8,541.0 714.2,541.5 714.6,539.9 715.0,539.8 715.4,540.5 715.8,541.9 716.2,541.4 716.6,541.3 717.0,542.4 717.4,543.1 717.8,543.1 718.2,543.7 718.6,544.8 719.0,545.5 719.4,546.3 719.8,546.2 720.2,545.3 720.6,545.8 721.0,546.8 721.4,547.0 721.8,548.0 722.2,548.5 722.6,548.8 723.0,548.9 723.4,550.0 723.8,550.0 724.2,548.6 724.7,549.8 725.1,549.9 725.5,550.0 725.9,549.4 726.3,549.4 726.7,550.5 727.1,550.7 727.5,550.6 727.9,549.9 728.3,551.7 728.7,551.8 729.1,550.1 729.5,550.8 729.9,549.9 730.3,549.9 730.7,549.6 731.1,551.5 731.5,552.9 731.9,552.5 732.3,552.3 732.7,551.9 733.1,552.7 733.5,554.0 733.9,554.6 734.3,555.2 734.7,555.1 735.1,555.3 735.5,555.3 735.9,554.7 736.3,553.7 736.7,554.7 737.2,555.1 737.6,554.4 738.0,553.2 738.4,554.4 738.8,553.6 739.2,552.5 739.6,552.2 740.0,551.6 740.4,552.1 740.8,551.7 741.2,551.4 741.6,551.3 742.0,551.5 742.4,551.0 742.8,551.1 743.2,550.4 743.6,548.0 744.0,549.0 744.4,549.1 744.8,549.9 745.2,549.1 745.6,548.2 746.0,547.4 746.4,546.8 746.8,546.5 747.2,545.0 747.6,546.9 748.0,545.8 748.4,546.0 748.8,544.3 749.2,545.6 749.7,546.6 750.1,547.0 750.5,547.4 750.9,546.6 751.3,546.4 751.7,547.9 752.1,546.8 752.5,547.0 752.9,547.4 753.3,548.7 753.7,549.0 754.1,551.6 754.5,551.3 754.9,552.4 755.3,551.9 755.7,551.8 756.1,550.6 756.5,550.6 756.9,551.2 757.3,551.1 757.7,549.7 758.1,548.8 758.5,549.6 758.9,549.2 759.3,550.4 759.7,550.4 760.1,551.4 760.5,550.5 760.9,550.0 761.3,547.6 761.7,548.5 762.2,549.1 762.6,548.1 763.0,547.1 763.4,547.8 763.8,547.8 764.2,547.4 764.6,547.6 765.0,548.2 765.4,548.3 765.8,549.7 766.2,549.8 766.6,549.4 767.0,549.1 767.4,550.4 767.8,549.9 768.2,549.4 768.6,550.7 769.0,550.4 769.4,552.1 769.8,553.2 770.2,553.7 770.6,552.3 771.0,552.7 771.4,551.9 771.8,552.1 772.2,551.9 772.6,551.8 773.0,550.8 773.4,551.6 773.8,553.3 774.2,554.1 774.7,554.8 775.1,556.1 775.5,555.8 775.9,556.8 776.3,554.3 776.7,555.4 777.1,555.5 777.5,556.7 777.9,557.2 778.3,557.5 778.7,559.1 779.1,558.9 779.5,557.7 779.9,557.9 780.3,557.8 780.7,557.0 781.1,557.6 781.5,558.7 781.9,561.0 782.3,560.0 782.7,560.7 783.1,561.7 783.5,561.2 783.9,561.1 784.3,561.1 784.7,560.8 785.1,561.2 785.5,560.4 785.9,561.6 786.3,562.2 786.7,560.9 787.2,560.0 787.6,560.6 788.0,561.3 788.4,561.3 788.8,561.1 789.2,561.3 789.6,561.0 790.0,560.6 790.4,560.5 790.8,561.4 791.2,561.8 791.6,561.2 792.0,562.2 792.4,562.6 792.8,563.0 793.2,562.9 793.6,562.9 794.0,561.7 794.4,561.7 794.8,562.4 795.2,562.0 795.6,562.2 796.0,562.2 796.4,561.5 796.8,562.3 797.2,561.2 797.6,562.1 798.0,562.0 798.4,562.2 798.8,562.2 799.2,561.8 799.7,561.5 800.1,559.8 800.5,558.2 800.9,558.9 801.3,558.6 801.7,559.1 802.1,560.1 802.5,560.6 802.9,561.1 803.3,561.4 803.7,561.4 804.1,561.8 804.5,561.4 804.9,562.2 805.3,560.0 805.7,560.4 806.1,560.0 806.5,561.2 806.9,560.4 807.3,559.1 807.7,559.0 808.1,560.2 808.5,559.7 808.9,560.5 809.3,559.8 809.7,559.3 810.1,559.7 810.5,561.9 810.9,562.6 811.3,562.1 811.7,561.6 812.2,560.6 812.6,561.3 813.0,560.9 813.4,559.5 813.8,561.0 814.2,561.2 814.6,560.6 815.0,560.4 815.4,561.1 815.8,561.0 816.2,561.4 816.6,561.2 817.0,561.5 817.4,562.0 817.8,562.5 818.2,562.3 818.6,562.6 819.0,562.1 819.4,561.7 819.8,563.0 820.2,562.8 820.6,563.1 821.0,562.9 821.4,561.5 821.8,563.0 822.2,564.5 822.6,564.8 823.0,564.6 823.4,564.3 823.8,564.5 824.2,564.0 824.7,563.6 825.1,563.5 825.5,563.7 825.9,564.9 826.3,564.5 826.7,564.4 827.1,564.2 827.5,564.5 827.9,563.6 828.3,563.6 828.7,561.8 829.1,562.4 829.5,562.9 829.9,562.1 830.3,562.0 830.7,562.8 831.1,563.0 831.5,562.7 831.9,562.3 832.3,561.9 832.7,562.3 833.1,561.1 833.5,561.5 833.9,561.7 834.3,561.3 834.7,561.0 835.1,562.0 835.5,562.8 835.9,564.0 836.3,564.1 836.7,565.1 837.1,565.5 837.6,565.2 838.0,564.8 838.4,565.0 838.8,565.5 839.2,564.9 839.6,564.2 840.0,565.0 840.4,565.0 840.8,563.8 841.2,563.5 841.6,564.8 842.0,565.4 842.4,566.5 842.8,565.2 843.2,564.6 843.6,564.1 844.0,564.0 844.4,564.6 844.8,563.9 845.2,564.1 845.6,563.5 846.0,562.2 846.4,562.3 846.8,563.0 847.2,563.9 847.6,564.0 848.0,564.8 848.4,563.7 848.8,562.6 849.2,561.8 849.6,563.4 850.1,562.3 850.5,561.5 850.9,562.1 851.3,561.8 851.7,563.1 852.1,563.3 852.5,564.4 852.9,564.5 853.3,565.7 853.7,565.5 854.1,564.9 854.5,565.6 854.9,566.7 855.3,567.5 855.7,567.9 856.1,568.3 856.5,569.2 856.9,569.1 857.3,569.9 857.7,570.3 858.1,571.2 858.5,570.3 858.9,570.1 859.3,570.4 859.7,570.0 860.1,570.6 860.5,571.3 860.9,571.0 861.3,571.1 861.7,570.9 862.1,571.4 862.6,571.0 863.0,570.6 863.4,572.6 863.8,572.1 864.2,574.4 864.6,574.6 865.0,574.6 865.4,575.0 865.8,575.7 866.2,576.7 866.6,576.2 867.0,577.6 867.4,576.8 867.8,577.3 868.2,577.9 868.6,577.9 869.0,578.5 869.4,577.4 869.8,576.9 870.2,577.7 870.6,578.1 871.0,578.7 871.4,578.0 871.8,578.6 872.2,578.1 872.6,578.0 873.0,578.7 873.4,578.8 873.8,579.3 874.2,580.2 874.6,580.0 875.1,580.9 875.5,582.6 875.9,583.2 876.3,583.9 876.7,583.9 877.1,584.3 877.5,585.2 877.9,583.9 878.3,584.3 878.7,583.9 879.1,585.2 879.5,585.7 879.9,585.9 880.3,586.9 880.7,586.7 881.1,587.8 881.5,587.8 881.9,588.5 882.3,588.6 882.7,588.6 883.1,588.4 883.5,588.4 883.9,589.1 884.3,589.4 884.7,589.4 885.1,589.5 885.5,589.9 885.9,589.6 886.3,590.1 886.7,590.0 887.1,589.3 887.6,588.3 888.0,589.2 888.4,589.0 888.8,589.9 889.2,589.7 889.6,588.8 890.0,588.5 890.4,588.3 890.8,588.6 891.2,588.6 891.6,588.3 892.0,588.9 892.4,589.2 892.8,588.8 893.2,589.7 893.6,590.5 894.0,591.5 894.4,591.2 894.8,591.3 895.2,591.2 895.6,589.9 896.0,590.0 896.4,589.4 896.8,589.3 897.2,589.4 897.6,589.6 898.0,588.5 898.4,588.8 898.8,589.5 899.2,589.2 899.6,589.2 900.1,590.1 900.5,589.1 900.9,588.9 901.3,589.4 901.7,588.9 902.1,588.5 902.5,589.1 902.9,587.9 903.3,587.3 903.7,586.8 904.1,586.0 904.5,585.8 904.9,585.4 905.3,585.9 905.7,585.7 906.1,585.4 906.5,585.7 906.9,585.9 907.3,585.7 907.7,585.7 908.1,586.2 908.5,587.0 908.9,586.8 909.3,588.3 909.7,588.5 910.1,588.6 910.5,587.8 910.9,587.9 911.3,587.8 911.7,588.1 912.1,587.7 912.6,587.6 913.0,588.1 913.4,587.7 913.8,588.0 914.2,588.0 914.6,586.9 915.0,586.3 915.4,585.2 915.8,585.6 916.2,586.2 916.6,587.1 917.0,586.4 917.4,586.1 917.8,585.6 918.2,586.1 918.6,585.1 919.0,586.3 919.4,585.3 919.8,583.6 920.2,583.0 920.6,582.9 921.0,584.0 921.4,585.3 921.8,585.4 922.2,586.3 922.6,586.6 923.0,585.8 923.4,585.6 923.8,585.2 924.2,585.3 924.6,585.4 925.1,585.1 925.5,585.0 925.9,584.8 926.3,584.8 926.7,585.0 927.1,586.0 927.5,587.3 927.9,587.6 928.3,587.4 928.7,588.3 929.1,588.1 929.5,588.0 929.9,589.2 930.3,589.8 930.7,589.5 931.1,588.9 931.5,589.2 931.9,588.9 932.3,588.5 932.7,588.0 933.1,588.3 933.5,588.4 933.9,588.8 934.3,588.4 934.7,587.6 935.1,587.0 935.5,587.3 935.9,587.3 936.3,587.5 936.7,587.2 937.1,586.5 937.6,586.8 938.0,588.0 938.4,587.6 938.8,587.4 939.2,588.7 939.6,589.0 940.0,588.6 940.4,588.4 940.8,588.9 941.2,588.4 941.6,588.9 942.0,589.4 942.4,589.0 942.8,589.1 943.2,588.9 943.6,588.1 944.0,587.7 944.4,587.5 944.8,587.3 945.2,587.3 945.6,587.4 946.0,587.8 946.4,587.0 946.8,586.6 947.2,586.9 947.6,587.1 948.0,587.1 948.4,586.6 948.8,586.4 949.2,585.1 949.6,585.5 950.1,585.3 950.5,585.1 950.9,585.1 951.3,584.1 951.7,584.0 952.1,583.8 952.5,584.1 952.9,584.5 953.3,584.4 953.7,583.9 954.1,583.2 954.5,582.2 954.9,581.8 955.3,582.0 955.7,580.6 956.1,580.6 956.5,580.4 956.9,580.7 957.3,581.2 957.7,580.7 958.1,580.3 958.5,580.3 958.9,579.7 959.3,578.8 959.7,579.3 960.1,580.0 960.5,579.6 960.9,579.1 961.3,579.0 961.7,578.6 962.1,578.1 962.6,578.5 963.0,578.8 963.4,579.6 963.8,578.7 964.2,578.3 964.6,577.7 965.0,577.2 965.4,575.5 965.8,576.3 966.2,576.8 966.6,577.0 967.0,578.0 967.4,578.9 967.8,579.4 968.2,580.3 968.6,580.4 969.0,580.5 969.4,580.3 969.8,579.8 970.2,579.3 970.6,579.6 971.0,578.0 971.4,578.0 971.8,579.3 972.2,580.7 972.6,581.2 973.0,581.0 973.4,580.7 973.8,580.5 974.2,579.4 974.6,579.6 975.1,578.9 975.5,579.7 975.9,579.8 976.3,579.6 976.7,579.8 977.1,580.4 977.5,580.3 977.9,579.9 978.3,580.2 978.7,580.4 979.1,581.0 979.5,581.4 979.9,581.5 980.3,581.4 980.7,581.1 981.1,581.6 981.5,581.9 981.9,581.3 982.3,580.6 982.7,580.4 983.1,579.9 983.5,579.3 983.9,578.4 984.3,577.4 984.7,578.0 985.1,577.7 985.5,578.2 985.9,579.0 986.3,579.3 986.7,579.8 987.1,579.7 987.6,580.1 988.0,580.4 988.4,581.0 988.8,582.1 989.2,582.2 989.6,582.3 990.0,582.2 990.4,580.9 990.8,580.5 991.2,580.2 991.6,580.3 992.0,581.3 992.4,581.1 992.8,581.7 993.2,582.0 993.6,581.9 994.0,581.5 994.4,582.3 994.8,582.6 995.2,582.4 995.6,582.9 996.0,583.6 996.4,582.8 996.8,583.1 997.2,583.4 997.6,584.0 998.0,584.2 998.4,584.1 998.8,583.1 999.2,583.7 999.6,583.7 1000.1,583.6 1000.5,584.6 1000.9,584.0 1001.3,584.9 1001.7,584.3 1002.1,584.0 1002.5,583.2 1002.9,583.1 1003.3,584.4 1003.7,585.0 1004.1,585.1 1004.5,585.8 1004.9,585.7 1005.3,584.8 1005.7,584.8 1006.1,585.4 1006.5,586.5 1006.9,586.4 1007.3,586.4 1007.7,587.0 1008.1,586.6 1008.5,586.4 1008.9,586.0 1009.3,587.5 1009.7,588.2 1010.1,586.9 1010.5,587.2 1010.9,588.3 1011.3,587.9 1011.7,588.0 1012.1,587.5 1012.6,587.2 1013.0,587.2 1013.4,587.1 1013.8,586.9 1014.2,586.3 1014.6,585.7 1015.0,586.3 1015.4,586.5 1015.8,586.2 1016.2,585.6 1016.6,585.9 1017.0,585.2 1017.4,584.6 1017.8,583.2 1018.2,583.8 1018.6,584.0 1019.0,584.6 1019.4,584.8 1019.8,585.3 1020.2,587.0 1020.6,587.0 1021.0,586.7 1021.4,586.8 1021.8,585.5 1022.2,585.4 1022.6,584.8 1023.0,584.5 1023.4,584.1 1023.8,584.1 1024.2,583.0 1024.6,582.8 1025.1,582.4 1025.5,581.9 1025.9,581.7 1026.3,581.3 1026.7,580.3 1027.1,580.0 1027.5,579.6 1027.9,579.0 1028.3,578.5 1028.7,577.9 1029.1,579.4 1029.5,579.0 1029.9,580.4 1030.3,579.3 1030.7,579.2 1031.1,578.5 1031.5,578.7 1031.9,579.4 1032.3,579.3 1032.7,579.6 1033.1,580.6 1033.5,580.6 1033.9,578.9 1034.3,578.3 1034.7,577.1 1035.1,576.3 1035.5,576.0 1035.9,575.8 1036.3,577.0 1036.7,577.2 1037.1,576.8 1037.6,577.4 1038.0,577.3 1038.4,578.3 1038.8,577.5 1039.2,577.3 1039.6,576.9 1040.0,576.5 1040.4,576.5 1040.8,576.4 1041.2,577.7 1041.6,578.9 1042.0,578.9 1042.4,579.3 1042.8,578.5 1043.2,577.2 1043.6,576.1 1044.0,576.5 1044.4,576.5 1044.8,576.7 1045.2,575.2 1045.6,573.7 1046.0,573.0 1046.4,573.4 1046.8,573.9 1047.2,573.1 1047.6,573.8 1048.0,573.6 1048.4,573.5 1048.8,572.5 1049.2,572.9 1049.6,574.5 1050.0,573.7 1050.5,573.9 1050.9,573.6 1051.3,573.7 1051.7,573.7 1052.1,572.8 1052.5,574.4 1052.9,574.6 1053.3,574.3 1053.7,574.4 1054.1,575.7 1054.5,575.3 1054.9,574.8 1055.3,574.9 1055.7,576.3 1056.1,575.6 1056.5,576.5 1056.9,576.1 1057.3,576.5 1057.7,576.6 1058.1,576.7 1058.5,576.8 1058.9,576.8 1059.3,576.2 1059.7,576.1 1060.1,575.7 1060.5,574.8 1060.9,575.0 1061.3,575.4 1061.7,577.0 1062.1,577.0 1062.5,577.3 1063.0,578.9 1063.4,579.1 1063.8,580.1 1064.2,579.3 1064.6,580.4 1065.0,581.1 1065.4,580.1 1065.8,579.8 1066.2,580.3 1066.6,580.8 1067.0,580.1 1067.4,581.2 1067.8,582.4 1068.2,582.2 1068.6,581.7 1069.0,581.7 1069.4,581.6 1069.8,580.9 1070.2,579.6 1070.6,580.3 1071.0,580.4 1071.4,579.1 1071.8,579.9 1072.2,579.6 1072.6,580.4 1073.0,580.7 1073.4,580.5 1073.8,581.2 1074.2,581.7 1074.6,581.2 1075.0,580.6 1075.5,580.5 1075.9,580.8 1076.3,580.5 1076.7,581.2 1077.1,580.4 1077.5,580.3 1077.9,578.4 1078.3,578.3 1078.7,578.9 1079.1,579.0 1079.5,578.6 1079.9,579.3 1080.3,579.5 1080.7,579.1 1081.1,580.0 1081.5,580.4 1081.9,580.6 1082.3,579.4 1082.7,579.8 1083.1,580.7 1083.5,581.8 1083.9,582.3 1084.3,583.0 1084.7,583.0 1085.1,583.5 1085.5,583.6 1085.9,583.9 1086.3,584.1 1086.7,583.3 1087.1,582.8 1087.5,582.4 1088.0,581.9 1088.4,581.9 1088.8,581.8 1089.2,581.7 1089.6,581.8 1090.0,581.9 1090.4,583.3 1090.8,583.0 1091.2,582.6 1091.6,582.8 1092.0,582.1 1092.4,582.9 1092.8,582.8 1093.2,583.5 1093.6,583.8 1094.0,583.8 1094.4,584.2 1094.8,584.0 1095.2,583.1 1095.6,583.7 1096.0,583.6 1096.4,584.3 1096.8,583.9 1097.2,584.6 1097.6,583.9 1098.0,582.5 1098.4,582.8 1098.8,583.5 1099.2,583.7 1099.6,582.6 1100.0,582.8 1100.5,583.2 1100.9,583.4 1101.3,583.2 1101.7,582.6 1102.1,581.9 1102.5,581.2 1102.9,581.0 1103.3,580.5 1103.7,580.7 1104.1,581.2 1104.5,580.7 1104.9,580.2 1105.3,579.5 1105.7,579.1 1106.1,580.1 1106.5,580.1 1106.9,579.2 1107.3,579.0 1107.7,580.4 1108.1,580.6 1108.5,580.2 1108.9,579.9 1109.3,581.0 1109.7,579.8 1110.1,579.7 1110.5,579.9 1110.9,580.1 1111.3,579.0 1111.7,579.6 1112.1,579.0 1112.5,578.9 1113.0,578.5 1113.4,578.3 1113.8,578.2 1114.2,578.5 1114.6,579.1 1115.0,580.1 1115.4,580.3 1115.8,580.2 1116.2,579.7 1116.6,579.3 1117.0,579.5 1117.4,578.6 1117.8,578.8 1118.2,578.7 1118.6,579.0 1119.0,578.3 1119.4,579.5 1119.8,579.0 1120.2,579.9 1120.6,579.9 1121.0,580.3 1121.4,581.7 1121.8,581.7 1122.2,582.5 1122.6,583.4 1123.0,582.2 1123.4,581.4 1123.8,580.9 1124.2,580.8 1124.6,580.8 1125.0,580.1 1125.5,578.7 1125.9,578.3 1126.3,579.7 1126.7,579.7 1127.1,579.8 1127.5,580.5 1127.9,580.2 1128.3,578.4 1128.7,578.1 1129.1,576.8 1129.5,577.1 1129.9,577.3 1130.3,577.3 1130.7,578.2 1131.1,578.7 1131.5,577.6 1131.9,576.4 1132.3,577.2 1132.7,576.6 1133.1,576.7 1133.5,576.5 1133.9,576.2 1134.3,575.6 1134.7,575.4 1135.1,574.6 1135.5,574.0 1135.9,573.6 1136.3,574.5 1136.7,573.2 1137.1,573.2 1137.5,573.4 1138.0,574.7 1138.4,575.6 1138.8,574.9 1139.2,574.8 1139.6,576.1 1140.0,576.2 1140.4,576.5 1140.8,575.5 1141.2,575.6 1141.6,575.3 1142.0,574.5 1142.4,575.0 1142.8,575.3 1143.2,575.8 1143.6,575.3 1144.0,575.8 1144.0,468.0" fill="#F7DDCF" stroke="none"/>
<polyline points="92.0,468.0 92.4,470.8 92.8,470.8 93.2,469.6 93.6,473.0 94.0,474.9 94.4,472.9 94.8,473.0 95.2,472.1 95.6,474.2 96.0,472.8 96.4,470.8 96.8,470.7 97.2,468.0 97.6,468.0 98.0,468.9 98.5,468.0 98.9,469.2 99.3,468.0 99.7,468.4 100.1,468.7 100.5,470.2 100.9,468.0 101.3,468.7 101.7,468.9 102.1,469.9 102.5,468.3 102.9,468.4 103.3,468.4 103.7,468.0 104.1,468.0 104.5,469.4 104.9,469.2 105.3,470.1 105.7,468.4 106.1,468.0 106.5,468.0 106.9,469.8 107.3,470.5 107.7,469.6 108.1,468.2 108.5,468.7 108.9,470.6 109.3,469.0 109.7,470.0 110.1,471.0 110.5,470.4 111.0,470.0 111.4,470.5 111.8,470.0 112.2,470.5 112.6,469.7 113.0,471.7 113.4,472.0 113.8,473.1 114.2,474.2 114.6,474.9 115.0,473.8 115.4,475.2 115.8,474.1 116.2,475.9 116.6,477.5 117.0,476.6 117.4,474.6 117.8,473.4 118.2,470.2 118.6,470.4 119.0,471.4 119.4,469.8 119.8,470.0 120.2,471.4 120.6,472.9 121.0,474.1 121.4,473.9 121.8,473.1 122.2,471.1 122.6,471.7 123.0,472.6 123.5,471.9 123.9,472.2 124.3,471.4 124.7,472.2 125.1,472.1 125.5,473.8 125.9,476.2 126.3,475.4 126.7,477.1 127.1,479.1 127.5,478.6 127.9,477.6 128.3,475.8 128.7,476.8 129.1,478.0 129.5,478.1 129.9,479.6 130.3,481.4 130.7,483.3 131.1,484.9 131.5,484.2 131.9,484.8 132.3,486.1 132.7,483.8 133.1,483.7 133.5,483.4 133.9,483.4 134.3,483.9 134.7,486.2 135.1,485.7 135.5,484.6 136.0,486.8 136.4,487.1 136.8,486.8 137.2,487.5 137.6,490.3 138.0,489.7 138.4,492.0 138.8,491.5 139.2,490.8 139.6,488.3 140.0,488.5 140.4,490.5 140.8,490.0 141.2,489.6 141.6,487.5 142.0,486.3 142.4,486.8 142.8,485.1 143.2,486.2 143.6,487.2 144.0,489.1 144.4,489.9 144.8,491.4 145.2,491.1 145.6,491.6 146.0,493.3 146.4,493.9 146.8,493.8 147.2,492.6 147.6,490.9 148.0,486.7 148.5,486.0 148.9,487.4 149.3,490.6 149.7,491.1 150.1,492.4 150.5,493.7 150.9,494.3 151.3,494.8 151.7,493.7 152.1,493.3 152.5,494.4 152.9,495.1 153.3,496.8 153.7,496.9 154.1,496.5 154.5,493.8 154.9,493.4 155.3,491.3 155.7,492.8 156.1,493.1 156.5,494.5 156.9,495.5 157.3,494.0 157.7,493.5 158.1,492.9 158.5,494.5 158.9,493.0 159.3,492.9 159.7,493.4 160.1,493.9 160.5,494.9 161.0,494.7 161.4,495.6 161.8,497.5 162.2,498.6 162.6,498.1 163.0,496.9 163.4,496.9 163.8,496.5 164.2,497.3 164.6,494.5 165.0,495.2 165.4,495.6 165.8,494.4 166.2,495.3 166.6,493.0 167.0,491.6 167.4,492.7 167.8,494.1 168.2,492.1 168.6,490.3 169.0,490.9 169.4,491.9 169.8,490.5 170.2,492.0 170.6,492.1 171.0,491.1 171.4,492.2 171.8,492.6 172.2,492.5 172.6,492.5 173.0,491.2 173.5,490.7 173.9,490.2 174.3,493.9 174.7,494.7 175.1,495.6 175.5,497.5 175.9,497.5 176.3,497.7 176.7,495.8 177.1,498.1 177.5,499.2 177.9,499.6 178.3,500.4 178.7,499.3 179.1,498.8 179.5,498.1 179.9,498.5 180.3,500.0 180.7,500.2 181.1,500.6 181.5,500.6 181.9,502.4 182.3,502.3 182.7,501.4 183.1,498.7 183.5,496.3 183.9,496.5 184.3,497.2 184.7,499.9 185.1,500.7 185.5,500.7 186.0,498.4 186.4,498.0 186.8,499.6 187.2,502.9 187.6,503.7 188.0,505.3 188.4,506.5 188.8,506.6 189.2,507.0 189.6,509.1 190.0,510.4 190.4,508.8 190.8,511.0 191.2,513.5 191.6,511.0 192.0,507.2 192.4,508.4 192.8,508.8 193.2,508.5 193.6,506.4 194.0,508.0 194.4,508.9 194.8,508.5 195.2,507.9 195.6,507.3 196.0,508.5 196.4,509.9 196.8,510.4 197.2,510.2 197.6,510.5 198.0,510.6 198.4,509.3 198.9,508.6 199.3,507.8 199.7,506.3 200.1,506.9 200.5,506.4 200.9,508.0 201.3,507.9 201.7,508.2 202.1,506.2 202.5,504.8 202.9,503.2 203.3,504.3 203.7,505.0 204.1,503.9 204.5,503.0 204.9,503.0 205.3,505.5 205.7,503.5 206.1,502.5 206.5,503.4 206.9,503.7 207.3,502.6 207.7,501.7 208.1,501.9 208.5,501.8 208.9,501.9 209.3,501.8 209.7,500.2 210.1,503.4 210.5,504.2 210.9,503.9 211.4,502.8 211.8,503.5 212.2,505.3 212.6,504.9 213.0,502.9 213.4,504.7 213.8,504.6 214.2,504.6 214.6,504.7 215.0,507.5 215.4,507.5 215.8,506.5 216.2,504.9 216.6,503.0 217.0,501.1 217.4,500.8 217.8,498.3 218.2,497.9 218.6,497.2 219.0,498.3 219.4,498.0 219.8,497.8 220.2,497.2 220.6,498.6 221.0,497.1 221.4,497.6 221.8,497.2 222.2,496.2 222.6,494.1 223.0,492.4 223.4,495.4 223.9,495.6 224.3,496.4 224.7,497.7 225.1,496.1 225.5,495.9 225.9,496.3 226.3,497.6 226.7,496.0 227.1,496.5 227.5,496.9 227.9,497.2 228.3,494.9 228.7,493.5 229.1,496.2 229.5,495.2 229.9,494.9 230.3,494.1 230.7,492.1 231.1,495.4 231.5,495.9 231.9,494.8 232.3,496.1 232.7,494.2 233.1,493.8 233.5,493.9 233.9,495.1 234.3,493.5 234.7,492.8 235.1,492.1 235.5,491.1 235.9,491.1 236.4,492.9 236.8,492.7 237.2,493.8 237.6,492.7 238.0,490.8 238.4,492.1 238.8,491.8 239.2,490.2 239.6,490.6 240.0,490.6 240.4,490.0 240.8,488.4 241.2,487.8 241.6,486.0 242.0,486.0 242.4,484.5 242.8,485.1 243.2,482.4 243.6,482.6 244.0,483.7 244.4,481.7 244.8,484.2 245.2,483.5 245.6,481.4 246.0,484.1 246.4,486.4 246.8,488.5 247.2,489.5 247.6,488.0 248.0,486.6 248.4,485.4 248.9,487.0 249.3,491.6 249.7,492.9 250.1,492.7 250.5,492.9 250.9,491.5 251.3,491.0 251.7,489.9 252.1,490.1 252.5,489.5 252.9,490.1 253.3,489.4 253.7,488.3 254.1,486.9 254.5,487.2 254.9,487.3 255.3,487.1 255.7,487.7 256.1,485.2 256.5,487.9 256.9,489.8 257.3,491.8 257.7,494.5 258.1,495.5 258.5,494.9 258.9,494.8 259.3,494.2 259.7,492.4 260.1,491.1 260.5,490.8 260.9,489.8 261.4,490.2 261.8,490.3 262.2,489.2 262.6,491.6 263.0,493.0 263.4,493.0 263.8,491.1 264.2,489.2 264.6,491.2 265.0,490.3 265.4,491.5 265.8,491.4 266.2,491.5 266.6,493.9 267.0,492.5 267.4,492.5 267.8,493.3 268.2,495.4 268.6,495.7 269.0,494.8 269.4,495.2 269.8,496.3 270.2,495.7 270.6,493.1 271.0,493.2 271.4,494.6 271.8,493.9 272.2,494.0 272.6,491.6 273.0,491.8 273.4,490.8 273.9,489.8 274.3,487.2 274.7,484.1 275.1,483.9 275.5,483.2 275.9,481.8 276.3,482.7 276.7,482.4 277.1,483.1 277.5,482.5 277.9,483.0 278.3,484.6 278.7,488.2 279.1,490.0 279.5,490.1 279.9,489.6 280.3,486.7 280.7,485.0 281.1,487.2 281.5,487.2 281.9,487.3 282.3,487.8 282.7,487.2 283.1,486.8 283.5,487.1 283.9,487.1 284.3,489.4 284.7,488.5 285.1,484.6 285.5,484.2 285.9,482.2 286.4,482.2 286.8,481.8 287.2,481.3 287.6,482.1 288.0,483.2 288.4,483.2 288.8,484.8 289.2,484.1 289.6,483.1 290.0,481.9 290.4,483.6 290.8,483.5 291.2,483.0 291.6,480.3 292.0,482.2 292.4,483.8 292.8,486.4 293.2,488.5 293.6,486.7 294.0,485.5 294.4,486.8 294.8,488.8 295.2,491.4 295.6,491.1 296.0,489.4 296.4,488.8 296.8,489.2 297.2,488.5 297.6,491.2 298.0,491.4 298.4,492.0 298.9,491.7 299.3,490.6 299.7,491.0 300.1,490.3 300.5,490.3 300.9,489.6 301.3,487.0 301.7,488.1 302.1,490.0 302.5,487.3 302.9,488.3 303.3,486.3 303.7,487.0 304.1,485.6 304.5,486.0 304.9,485.1 305.3,483.2 305.7,483.6 306.1,484.9 306.5,486.3 306.9,485.0 307.3,486.2 307.7,485.0 308.1,485.0 308.5,484.7 308.9,487.6 309.3,488.3 309.7,491.2 310.1,492.1 310.5,491.1 310.9,490.1 311.4,489.8 311.8,490.0 312.2,490.9 312.6,492.2 313.0,490.6 313.4,490.4 313.8,490.4 314.2,489.6 314.6,489.5 315.0,486.5 315.4,487.1 315.8,487.0 316.2,486.8 316.6,488.6 317.0,489.5 317.4,490.2 317.8,489.4 318.2,490.0 318.6,490.5 319.0,491.3 319.4,490.0 319.8,490.1 320.2,490.2 320.6,491.0 321.0,489.6 321.4,490.0 321.8,491.8 322.2,491.0 322.6,490.6 323.0,492.3 323.4,492.3 323.9,493.3 324.3,491.0 324.7,490.2 325.1,490.4 325.5,490.0 325.9,493.5 326.3,495.2 326.7,496.5 327.1,498.3 327.5,496.9 327.9,494.6 328.3,496.1 328.7,497.0 329.1,496.9 329.5,496.2 329.9,496.9 330.3,497.0 330.7,494.4 331.1,496.0 331.5,498.4 331.9,497.5 332.3,497.7 332.7,496.5 333.1,495.4 333.5,498.1 333.9,496.5 334.3,497.4 334.7,496.3 335.1,497.2 335.5,498.9 335.9,498.5 336.4,496.8 336.8,497.1 337.2,499.6 337.6,498.5 338.0,499.4 338.4,498.9 338.8,500.8 339.2,499.8 339.6,499.8 340.0,500.9 340.4,500.3 340.8,500.1 341.2,501.3 341.6,498.3 342.0,499.0 342.4,498.9 342.8,498.6 343.2,499.4 343.6,498.4 344.0,499.5 344.4,499.9 344.8,498.8 345.2,500.5 345.6,503.6 346.0,501.6 346.4,498.5 346.8,498.4 347.2,500.6 347.6,500.8 348.0,501.0 348.4,500.6 348.9,502.5 349.3,501.6 349.7,500.7 350.1,502.3 350.5,499.9 350.9,498.1 351.3,498.5 351.7,498.4 352.1,497.8 352.5,495.7 352.9,497.6 353.3,497.5 353.7,497.9 354.1,494.9 354.5,495.1 354.9,493.9 355.3,495.6 355.7,494.8 356.1,493.5 356.5,495.0 356.9,495.0 357.3,492.4 357.7,492.8 358.1,495.2 358.5,494.9 358.9,495.1 359.3,495.8 359.7,496.4 360.1,498.3 360.5,499.7 360.9,498.9 361.4,500.2 361.8,504.0 362.2,503.1 362.6,502.8 363.0,503.2 363.4,504.0 363.8,503.9 364.2,503.4 364.6,500.6 365.0,500.3 365.4,500.2 365.8,500.7 366.2,499.3 366.6,499.2 367.0,498.2 367.4,499.2 367.8,500.1 368.2,500.0 368.6,498.9 369.0,496.5 369.4,497.7 369.8,498.9 370.2,498.5 370.6,498.8 371.0,497.5 371.4,499.4 371.8,500.8 372.2,500.8 372.6,503.6 373.0,505.3 373.4,506.4 373.9,507.3 374.3,505.1 374.7,504.8 375.1,506.2 375.5,506.1 375.9,505.0 376.3,506.6 376.7,507.8 377.1,507.0 377.5,507.6 377.9,506.3 378.3,505.2 378.7,503.5 379.1,504.9 379.5,504.1 379.9,504.2 380.3,505.2 380.7,506.3 381.1,504.5 381.5,504.4 381.9,506.3 382.3,506.6 382.7,504.9 383.1,507.6 383.5,509.7 383.9,509.9 384.3,508.8 384.7,508.2 385.1,508.2 385.5,509.2 385.9,510.5 386.4,510.0 386.8,511.4 387.2,510.5 387.6,510.7 388.0,510.3 388.4,509.8 388.8,509.6 389.2,508.5 389.6,511.2 390.0,514.2 390.4,513.8 390.8,512.7 391.2,514.1 391.6,516.9 392.0,517.4 392.4,516.7 392.8,514.7 393.2,513.7 393.6,513.3 394.0,513.7 394.4,513.0 394.8,512.6 395.2,512.9 395.6,510.3 396.0,509.4 396.4,508.1 396.8,508.0 397.2,506.9 397.6,506.5 398.0,507.2 398.4,505.9 398.9,504.9 399.3,503.8 399.7,503.2 400.1,502.4 400.5,504.3 400.9,503.7 401.3,505.0 401.7,506.8 402.1,504.7 402.5,502.9 402.9,500.5 403.3,500.7 403.7,499.6 404.1,500.0 404.5,500.4 404.9,501.7 405.3,501.0 405.7,500.8 406.1,503.0 406.5,502.9 406.9,502.3 407.3,500.9 407.7,500.5 408.1,499.6 408.5,499.9 408.9,499.3 409.3,499.8 409.7,500.3 410.1,501.0 410.5,500.9 410.9,501.7 411.3,500.1 411.8,499.4 412.2,502.3 412.6,502.7 413.0,501.3 413.4,500.5 413.8,499.3 414.2,500.1 414.6,501.2 415.0,501.8 415.4,502.1 415.8,502.1 416.2,500.0 416.6,500.2 417.0,499.4 417.4,501.4 417.8,501.4 418.2,501.5 418.6,502.2 419.0,504.3 419.4,504.3 419.8,504.2 420.2,504.3 420.6,503.9 421.0,504.0 421.4,503.6 421.8,503.5 422.2,504.1 422.6,504.5 423.0,502.2 423.4,504.8 423.8,507.7 424.3,509.3 424.7,509.5 425.1,508.9 425.5,509.2 425.9,508.9 426.3,511.8 426.7,511.2 427.1,509.2 427.5,510.7 427.9,510.6 428.3,510.8 428.7,511.2 429.1,512.2 429.5,509.6 429.9,507.4 430.3,507.8 430.7,506.0 431.1,506.6 431.5,504.6 431.9,504.6 432.3,504.5 432.7,503.8 433.1,500.8 433.5,500.5 433.9,500.5 434.3,498.8 434.7,499.3 435.1,499.4 435.5,499.2 435.9,500.2 436.3,499.6 436.8,499.6 437.2,499.2 437.6,498.0 438.0,500.6 438.4,499.1 438.8,501.2 439.2,503.9 439.6,503.8 440.0,504.4 440.4,505.0 440.8,503.8 441.2,506.1 441.6,507.3 442.0,508.0 442.4,507.3 442.8,506.7 443.2,508.5 443.6,507.4 444.0,508.4 444.4,510.4 444.8,512.3 445.2,511.8 445.6,511.9 446.0,512.0 446.4,512.8 446.8,512.4 447.2,510.8 447.6,512.6 448.0,512.9 448.4,514.0 448.8,513.9 449.3,513.3 449.7,514.4 450.1,516.2 450.5,518.9 450.9,518.9 451.3,518.5 451.7,519.2 452.1,519.1 452.5,519.8 452.9,518.8 453.3,519.2 453.7,520.5 454.1,520.8 454.5,522.0 454.9,521.4 455.3,521.3 455.7,522.2 456.1,520.4 456.5,520.8 456.9,518.7 457.3,519.3 457.7,521.3 458.1,520.8 458.5,521.4 458.9,521.7 459.3,520.7 459.7,520.5 460.1,522.4 460.5,520.9 460.9,519.5 461.3,517.9 461.8,517.7 462.2,516.4 462.6,517.9 463.0,518.4 463.4,519.7 463.8,519.1 464.2,519.5 464.6,519.4 465.0,518.2 465.4,518.8 465.8,519.6 466.2,520.1 466.6,520.3 467.0,520.5 467.4,520.5 467.8,519.7 468.2,518.5 468.6,517.7 469.0,517.1 469.4,518.8 469.8,518.7 470.2,517.2 470.6,516.1 471.0,515.6 471.4,515.3 471.8,515.3 472.2,513.8 472.6,513.6 473.0,514.2 473.4,513.7 473.8,517.6 474.3,517.0 474.7,521.1 475.1,523.0 475.5,522.4 475.9,521.7 476.3,523.7 476.7,524.5 477.1,523.7 477.5,525.0 477.9,522.6 478.3,522.5 478.7,521.7 479.1,519.5 479.5,519.7 479.9,521.1 480.3,520.8 480.7,521.3 481.1,523.2 481.5,522.8 481.9,523.7 482.3,522.7 482.7,522.3 483.1,522.0 483.5,521.7 483.9,521.3 484.3,520.3 484.7,521.1 485.1,522.4 485.5,522.0 485.9,522.7 486.3,524.8 486.8,524.3 487.2,523.1 487.6,524.7 488.0,524.4 488.4,524.5 488.8,523.8 489.2,523.6 489.6,525.9 490.0,526.6 490.4,526.9 490.8,527.7 491.2,526.5 491.6,525.4 492.0,523.5 492.4,522.4 492.8,522.7 493.2,522.4 493.6,521.7 494.0,522.2 494.4,521.9 494.8,522.4 495.2,522.3 495.6,524.4 496.0,524.7 496.4,523.8 496.8,523.5 497.2,522.6 497.6,521.8 498.0,521.4 498.4,520.6 498.8,520.5 499.3,522.3 499.7,521.2 500.1,522.0 500.5,524.3 500.9,526.2 501.3,526.8 501.7,526.4 502.1,526.5 502.5,525.6 502.9,524.5 503.3,523.0 503.7,522.4 504.1,521.7 504.5,521.9 504.9,525.0 505.3,525.2 505.7,527.6 506.1,527.5 506.5,527.9 506.9,527.5 507.3,525.7 507.7,525.1 508.1,525.0 508.5,524.3 508.9,525.0 509.3,525.1 509.7,523.8 510.1,525.2 510.5,524.2 510.9,522.7 511.3,524.6 511.8,524.0 512.2,523.6 512.6,524.3 513.0,524.9 513.4,526.7 513.8,526.8 514.2,526.2 514.6,527.1 515.0,526.6 515.4,528.5 515.8,528.9 516.2,528.9 516.6,526.1 517.0,528.8 517.4,528.2 517.8,527.8 518.2,527.2 518.6,527.3 519.0,526.6 519.4,525.9 519.8,525.0 520.2,525.5 520.6,524.8 521.0,525.6 521.4,525.3 521.8,526.3 522.2,524.8 522.6,522.9 523.0,523.2 523.4,523.7 523.8,524.6 524.3,525.1 524.7,527.1 525.1,528.2 525.5,528.2 525.9,526.3 526.3,523.2 526.7,522.8 527.1,521.5 527.5,521.7 527.9,521.6 528.3,520.6 528.7,520.1 529.1,520.1 529.5,521.5 529.9,523.1 530.3,525.3 530.7,524.3 531.1,524.7 531.5,524.7 531.9,525.2 532.3,524.1 532.7,523.3 533.1,523.5 533.5,522.3 533.9,520.8 534.3,520.2 534.7,518.7 535.1,518.0 535.5,516.7 535.9,517.7 536.3,517.0 536.8,516.3 537.2,517.8 537.6,515.8 538.0,517.6 538.4,518.9 538.8,518.0 539.2,517.3 539.6,516.0 540.0,515.6 540.4,516.8 540.8,517.4 541.2,518.0 541.6,518.6 542.0,516.7 542.4,516.9 542.8,517.2 543.2,518.1 543.6,517.0 544.0,516.3 544.4,518.1 544.8,518.0 545.2,518.3 545.6,518.3 546.0,515.6 546.4,516.6 546.8,517.7 547.2,519.7 547.6,521.6 548.0,521.9 548.4,522.0 548.8,521.1 549.3,521.1 549.7,519.9 550.1,519.9 550.5,519.6 550.9,520.3 551.3,519.2 551.7,516.8 552.1,519.7 552.5,521.5 552.9,521.8 553.3,521.4 553.7,520.2 554.1,520.5 554.5,520.1 554.9,518.2 555.3,516.8 555.7,516.3 556.1,514.9 556.5,514.9 556.9,514.8 557.3,513.8 557.7,514.1 558.1,514.1 558.5,513.1 558.9,515.6 559.3,517.1 559.7,517.8 560.1,516.9 560.5,517.0 560.9,518.9 561.3,520.0 561.8,521.1 562.2,518.8 562.6,516.4 563.0,517.2 563.4,517.9 563.8,519.2 564.2,521.9 564.6,522.2 565.0,522.1 565.4,523.3 565.8,525.0 566.2,525.7 566.6,525.7 567.0,525.3 567.4,524.6 567.8,526.2 568.2,525.5 568.6,526.4 569.0,525.7 569.4,525.8 569.8,527.4 570.2,527.1 570.6,527.5 571.0,528.3 571.4,528.1 571.8,526.5 572.2,526.1 572.6,526.6 573.0,526.1 573.4,525.0 573.8,523.0 574.3,523.7 574.7,524.7 575.1,523.4 575.5,524.4 575.9,525.7 576.3,526.4 576.7,526.6 577.1,526.4 577.5,527.5 577.9,528.1 578.3,529.4 578.7,529.7 579.1,528.0 579.5,528.5 579.9,526.8 580.3,527.4 580.7,527.8 581.1,528.8 581.5,532.8 581.9,534.7 582.3,536.3 582.7,538.7 583.1,540.2 583.5,538.5 583.9,538.1 584.3,536.3 584.7,536.6 585.1,536.2 585.5,536.7 585.9,536.8 586.3,536.8 586.8,537.7 587.2,536.9 587.6,536.2 588.0,537.2 588.4,538.4 588.8,540.2 589.2,540.6 589.6,539.9 590.0,540.0 590.4,539.5 590.8,539.0 591.2,538.3 591.6,537.3 592.0,536.7 592.4,537.3 592.8,536.4 593.2,536.4 593.6,535.2 594.0,535.1 594.4,534.8 594.8,536.7 595.2,537.6 595.6,538.7 596.0,537.5 596.4,536.8 596.8,537.7 597.2,537.3 597.6,538.9 598.0,539.1 598.4,537.9 598.8,537.8 599.3,536.3 599.7,536.9 600.1,536.7 600.5,536.2 600.9,535.9 601.3,536.1 601.7,536.1 602.1,536.9 602.5,537.5 602.9,536.8 603.3,536.6 603.7,536.3 604.1,535.2 604.5,533.4 604.9,533.9 605.3,533.5 605.7,534.5 606.1,534.3 606.5,535.2 606.9,534.2 607.3,534.6 607.7,534.9 608.1,534.2 608.5,536.1 608.9,538.1 609.3,537.5 609.7,537.3 610.1,537.1 610.5,537.7 610.9,537.5 611.3,535.7 611.8,535.6 612.2,535.7 612.6,536.5 613.0,536.5 613.4,538.9 613.8,538.5 614.2,538.1 614.6,540.2 615.0,541.4 615.4,543.0 615.8,544.4 616.2,544.3 616.6,546.0 617.0,545.1 617.4,543.6 617.8,543.9 618.2,546.5 618.6,547.5 619.0,546.7 619.4,549.4 619.8,549.8 620.2,551.2 620.6,550.2 621.0,551.3 621.4,550.6 621.8,550.9 622.2,548.5 622.6,549.1 623.0,548.8 623.4,549.6 623.8,548.3 624.2,548.3 624.7,548.6 625.1,548.6 625.5,549.9 625.9,549.9 626.3,549.5 626.7,548.7 627.1,550.7 627.5,550.6 627.9,550.0 628.3,551.8 628.7,552.5 629.1,550.9 629.5,551.5 629.9,551.3 630.3,549.7 630.7,548.5 631.1,548.4 631.5,546.5 631.9,546.0 632.3,547.3 632.7,547.2 633.1,547.5 633.5,548.2 633.9,549.2 634.3,548.3 634.7,547.3 635.1,547.0 635.5,546.9 635.9,546.8 636.3,547.2 636.7,546.6 637.2,547.2 637.6,546.6 638.0,544.7 638.4,544.1 638.8,544.4 639.2,545.1 639.6,545.5 640.0,546.4 640.4,546.6 640.8,546.2 641.2,547.7 641.6,546.4 642.0,546.6 642.4,546.4 642.8,547.4 643.2,546.7 643.6,545.8 644.0,545.5 644.4,547.4 644.8,546.4 645.2,545.4 645.6,546.6 646.0,546.7 646.4,546.6 646.8,545.9 647.2,545.7 647.6,545.9 648.0,544.7 648.4,543.1 648.8,544.9 649.2,544.9 649.7,544.7 650.1,545.8 650.5,545.4 650.9,544.1 651.3,545.2 651.7,544.7 652.1,546.0 652.5,546.5 652.9,544.6 653.3,544.6 653.7,544.5 654.1,546.4 654.5,544.9 654.9,544.6 655.3,544.4 655.7,544.1 656.1,545.3 656.5,544.1 656.9,544.1 657.3,544.3 657.7,545.2 658.1,544.3 658.5,544.2 658.9,543.6 659.3,542.5 659.7,542.5 660.1,542.5 660.5,543.1 660.9,541.9 661.3,543.2 661.7,541.9 662.2,540.2 662.6,540.9 663.0,538.8 663.4,537.0 663.8,536.1 664.2,536.5 664.6,536.9 665.0,537.1 665.4,536.8 665.8,536.4 666.2,536.4 666.6,536.6 667.0,535.3 667.4,534.1 667.8,533.4 668.2,532.7 668.6,532.1 669.0,533.3 669.4,534.1 669.8,536.2 670.2,535.8 670.6,535.2 671.0,536.0 671.4,538.5 671.8,539.9 672.2,539.3 672.6,540.2 673.0,539.3 673.4,540.7 673.8,539.3 674.2,539.0 674.7,538.9 675.1,536.7 675.5,535.7 675.9,536.2 676.3,536.6 676.7,538.2 677.1,536.9 677.5,536.8 677.9,537.0 678.3,535.2 678.7,535.4 679.1,533.3 679.5,533.1 679.9,531.3 680.3,530.9 680.7,529.4 681.1,529.2 681.5,530.2 681.9,529.4 682.3,528.0 682.7,527.5 683.1,528.0 683.5,530.3 683.9,532.2 684.3,533.7 684.7,534.2 685.1,533.3 685.5,533.1 685.9,535.5 686.3,534.7 686.7,534.4 687.2,531.9 687.6,532.8 688.0,532.7 688.4,531.0 688.8,530.4 689.2,529.3 689.6,528.7 690.0,528.4 690.4,527.5 690.8,528.9 691.2,528.7 691.6,530.2 692.0,530.9 692.4,530.4 692.8,530.8 693.2,531.1 693.6,531.8 694.0,532.1 694.4,532.5 694.8,534.6 695.2,534.7 695.6,535.8 696.0,534.3 696.4,535.5 696.8,536.1 697.2,536.4 697.6,535.0 698.0,534.6 698.4,534.3 698.8,533.9 699.2,536.5 699.7,537.5 700.1,536.2 700.5,536.3 700.9,536.8 701.3,536.5 701.7,535.3 702.1,536.9 702.5,538.1 702.9,537.7 703.3,537.6 703.7,535.5 704.1,535.7 704.5,537.4 704.9,539.0 705.3,541.3 705.7,541.6 706.1,541.8 706.5,541.6 706.9,540.8 707.3,539.5 707.7,539.4 708.1,542.0 708.5,541.4 708.9,540.4 709.3,539.2 709.7,538.5 710.1,539.7 710.5,539.0 710.9,540.0 711.3,539.3 711.7,541.1 712.2,541.8 712.6,541.0 713.0,541.4 713.4,540.3 713.8,541.0 714.2,541.5 714.6,539.9 715.0,539.8 715.4,540.5 715.8,541.9 716.2,541.4 716.6,541.3 717.0,542.4 717.4,543.1 717.8,543.1 718.2,543.7 718.6,544.8 719.0,545.5 719.4,546.3 719.8,546.2 720.2,545.3 720.6,545.8 721.0,546.8 721.4,547.0 721.8,548.0 722.2,548.5 722.6,548.8 723.0,548.9 723.4,550.0 723.8,550.0 724.2,548.6 724.7,549.8 725.1,549.9 725.5,550.0 725.9,549.4 726.3,549.4 726.7,550.5 727.1,550.7 727.5,550.6 727.9,549.9 728.3,551.7 728.7,551.8 729.1,550.1 729.5,550.8 729.9,549.9 730.3,549.9 730.7,549.6 731.1,551.5 731.5,552.9 731.9,552.5 732.3,552.3 732.7,551.9 733.1,552.7 733.5,554.0 733.9,554.6 734.3,555.2 734.7,555.1 735.1,555.3 735.5,555.3 735.9,554.7 736.3,553.7 736.7,554.7 737.2,555.1 737.6,554.4 738.0,553.2 738.4,554.4 738.8,553.6 739.2,552.5 739.6,552.2 740.0,551.6 740.4,552.1 740.8,551.7 741.2,551.4 741.6,551.3 742.0,551.5 742.4,551.0 742.8,551.1 743.2,550.4 743.6,548.0 744.0,549.0 744.4,549.1 744.8,549.9 745.2,549.1 745.6,548.2 746.0,547.4 746.4,546.8 746.8,546.5 747.2,545.0 747.6,546.9 748.0,545.8 748.4,546.0 748.8,544.3 749.2,545.6 749.7,546.6 750.1,547.0 750.5,547.4 750.9,546.6 751.3,546.4 751.7,547.9 752.1,546.8 752.5,547.0 752.9,547.4 753.3,548.7 753.7,549.0 754.1,551.6 754.5,551.3 754.9,552.4 755.3,551.9 755.7,551.8 756.1,550.6 756.5,550.6 756.9,551.2 757.3,551.1 757.7,549.7 758.1,548.8 758.5,549.6 758.9,549.2 759.3,550.4 759.7,550.4 760.1,551.4 760.5,550.5 760.9,550.0 761.3,547.6 761.7,548.5 762.2,549.1 762.6,548.1 763.0,547.1 763.4,547.8 763.8,547.8 764.2,547.4 764.6,547.6 765.0,548.2 765.4,548.3 765.8,549.7 766.2,549.8 766.6,549.4 767.0,549.1 767.4,550.4 767.8,549.9 768.2,549.4 768.6,550.7 769.0,550.4 769.4,552.1 769.8,553.2 770.2,553.7 770.6,552.3 771.0,552.7 771.4,551.9 771.8,552.1 772.2,551.9 772.6,551.8 773.0,550.8 773.4,551.6 773.8,553.3 774.2,554.1 774.7,554.8 775.1,556.1 775.5,555.8 775.9,556.8 776.3,554.3 776.7,555.4 777.1,555.5 777.5,556.7 777.9,557.2 778.3,557.5 778.7,559.1 779.1,558.9 779.5,557.7 779.9,557.9 780.3,557.8 780.7,557.0 781.1,557.6 781.5,558.7 781.9,561.0 782.3,560.0 782.7,560.7 783.1,561.7 783.5,561.2 783.9,561.1 784.3,561.1 784.7,560.8 785.1,561.2 785.5,560.4 785.9,561.6 786.3,562.2 786.7,560.9 787.2,560.0 787.6,560.6 788.0,561.3 788.4,561.3 788.8,561.1 789.2,561.3 789.6,561.0 790.0,560.6 790.4,560.5 790.8,561.4 791.2,561.8 791.6,561.2 792.0,562.2 792.4,562.6 792.8,563.0 793.2,562.9 793.6,562.9 794.0,561.7 794.4,561.7 794.8,562.4 795.2,562.0 795.6,562.2 796.0,562.2 796.4,561.5 796.8,562.3 797.2,561.2 797.6,562.1 798.0,562.0 798.4,562.2 798.8,562.2 799.2,561.8 799.7,561.5 800.1,559.8 800.5,558.2 800.9,558.9 801.3,558.6 801.7,559.1 802.1,560.1 802.5,560.6 802.9,561.1 803.3,561.4 803.7,561.4 804.1,561.8 804.5,561.4 804.9,562.2 805.3,560.0 805.7,560.4 806.1,560.0 806.5,561.2 806.9,560.4 807.3,559.1 807.7,559.0 808.1,560.2 808.5,559.7 808.9,560.5 809.3,559.8 809.7,559.3 810.1,559.7 810.5,561.9 810.9,562.6 811.3,562.1 811.7,561.6 812.2,560.6 812.6,561.3 813.0,560.9 813.4,559.5 813.8,561.0 814.2,561.2 814.6,560.6 815.0,560.4 815.4,561.1 815.8,561.0 816.2,561.4 816.6,561.2 817.0,561.5 817.4,562.0 817.8,562.5 818.2,562.3 818.6,562.6 819.0,562.1 819.4,561.7 819.8,563.0 820.2,562.8 820.6,563.1 821.0,562.9 821.4,561.5 821.8,563.0 822.2,564.5 822.6,564.8 823.0,564.6 823.4,564.3 823.8,564.5 824.2,564.0 824.7,563.6 825.1,563.5 825.5,563.7 825.9,564.9 826.3,564.5 826.7,564.4 827.1,564.2 827.5,564.5 827.9,563.6 828.3,563.6 828.7,561.8 829.1,562.4 829.5,562.9 829.9,562.1 830.3,562.0 830.7,562.8 831.1,563.0 831.5,562.7 831.9,562.3 832.3,561.9 832.7,562.3 833.1,561.1 833.5,561.5 833.9,561.7 834.3,561.3 834.7,561.0 835.1,562.0 835.5,562.8 835.9,564.0 836.3,564.1 836.7,565.1 837.1,565.5 837.6,565.2 838.0,564.8 838.4,565.0 838.8,565.5 839.2,564.9 839.6,564.2 840.0,565.0 840.4,565.0 840.8,563.8 841.2,563.5 841.6,564.8 842.0,565.4 842.4,566.5 842.8,565.2 843.2,564.6 843.6,564.1 844.0,564.0 844.4,564.6 844.8,563.9 845.2,564.1 845.6,563.5 846.0,562.2 846.4,562.3 846.8,563.0 847.2,563.9 847.6,564.0 848.0,564.8 848.4,563.7 848.8,562.6 849.2,561.8 849.6,563.4 850.1,562.3 850.5,561.5 850.9,562.1 851.3,561.8 851.7,563.1 852.1,563.3 852.5,564.4 852.9,564.5 853.3,565.7 853.7,565.5 854.1,564.9 854.5,565.6 854.9,566.7 855.3,567.5 855.7,567.9 856.1,568.3 856.5,569.2 856.9,569.1 857.3,569.9 857.7,570.3 858.1,571.2 858.5,570.3 858.9,570.1 859.3,570.4 859.7,570.0 860.1,570.6 860.5,571.3 860.9,571.0 861.3,571.1 861.7,570.9 862.1,571.4 862.6,571.0 863.0,570.6 863.4,572.6 863.8,572.1 864.2,574.4 864.6,574.6 865.0,574.6 865.4,575.0 865.8,575.7 866.2,576.7 866.6,576.2 867.0,577.6 867.4,576.8 867.8,577.3 868.2,577.9 868.6,577.9 869.0,578.5 869.4,577.4 869.8,576.9 870.2,577.7 870.6,578.1 871.0,578.7 871.4,578.0 871.8,578.6 872.2,578.1 872.6,578.0 873.0,578.7 873.4,578.8 873.8,579.3 874.2,580.2 874.6,580.0 875.1,580.9 875.5,582.6 875.9,583.2 876.3,583.9 876.7,583.9 877.1,584.3 877.5,585.2 877.9,583.9 878.3,584.3 878.7,583.9 879.1,585.2 879.5,585.7 879.9,585.9 880.3,586.9 880.7,586.7 881.1,587.8 881.5,587.8 881.9,588.5 882.3,588.6 882.7,588.6 883.1,588.4 883.5,588.4 883.9,589.1 884.3,589.4 884.7,589.4 885.1,589.5 885.5,589.9 885.9,589.6 886.3,590.1 886.7,590.0 887.1,589.3 887.6,588.3 888.0,589.2 888.4,589.0 888.8,589.9 889.2,589.7 889.6,588.8 890.0,588.5 890.4,588.3 890.8,588.6 891.2,588.6 891.6,588.3 892.0,588.9 892.4,589.2 892.8,588.8 893.2,589.7 893.6,590.5 894.0,591.5 894.4,591.2 894.8,591.3 895.2,591.2 895.6,589.9 896.0,590.0 896.4,589.4 896.8,589.3 897.2,589.4 897.6,589.6 898.0,588.5 898.4,588.8 898.8,589.5 899.2,589.2 899.6,589.2 900.1,590.1 900.5,589.1 900.9,588.9 901.3,589.4 901.7,588.9 902.1,588.5 902.5,589.1 902.9,587.9 903.3,587.3 903.7,586.8 904.1,586.0 904.5,585.8 904.9,585.4 905.3,585.9 905.7,585.7 906.1,585.4 906.5,585.7 906.9,585.9 907.3,585.7 907.7,585.7 908.1,586.2 908.5,587.0 908.9,586.8 909.3,588.3 909.7,588.5 910.1,588.6 910.5,587.8 910.9,587.9 911.3,587.8 911.7,588.1 912.1,587.7 912.6,587.6 913.0,588.1 913.4,587.7 913.8,588.0 914.2,588.0 914.6,586.9 915.0,586.3 915.4,585.2 915.8,585.6 916.2,586.2 916.6,587.1 917.0,586.4 917.4,586.1 917.8,585.6 918.2,586.1 918.6,585.1 919.0,586.3 919.4,585.3 919.8,583.6 920.2,583.0 920.6,582.9 921.0,584.0 921.4,585.3 921.8,585.4 922.2,586.3 922.6,586.6 923.0,585.8 923.4,585.6 923.8,585.2 924.2,585.3 924.6,585.4 925.1,585.1 925.5,585.0 925.9,584.8 926.3,584.8 926.7,585.0 927.1,586.0 927.5,587.3 927.9,587.6 928.3,587.4 928.7,588.3 929.1,588.1 929.5,588.0 929.9,589.2 930.3,589.8 930.7,589.5 931.1,588.9 931.5,589.2 931.9,588.9 932.3,588.5 932.7,588.0 933.1,588.3 933.5,588.4 933.9,588.8 934.3,588.4 934.7,587.6 935.1,587.0 935.5,587.3 935.9,587.3 936.3,587.5 936.7,587.2 937.1,586.5 937.6,586.8 938.0,588.0 938.4,587.6 938.8,587.4 939.2,588.7 939.6,589.0 940.0,588.6 940.4,588.4 940.8,588.9 941.2,588.4 941.6,588.9 942.0,589.4 942.4,589.0 942.8,589.1 943.2,588.9 943.6,588.1 944.0,587.7 944.4,587.5 944.8,587.3 945.2,587.3 945.6,587.4 946.0,587.8 946.4,587.0 946.8,586.6 947.2,586.9 947.6,587.1 948.0,587.1 948.4,586.6 948.8,586.4 949.2,585.1 949.6,585.5 950.1,585.3 950.5,585.1 950.9,585.1 951.3,584.1 951.7,584.0 952.1,583.8 952.5,584.1 952.9,584.5 953.3,584.4 953.7,583.9 954.1,583.2 954.5,582.2 954.9,581.8 955.3,582.0 955.7,580.6 956.1,580.6 956.5,580.4 956.9,580.7 957.3,581.2 957.7,580.7 958.1,580.3 958.5,580.3 958.9,579.7 959.3,578.8 959.7,579.3 960.1,580.0 960.5,579.6 960.9,579.1 961.3,579.0 961.7,578.6 962.1,578.1 962.6,578.5 963.0,578.8 963.4,579.6 963.8,578.7 964.2,578.3 964.6,577.7 965.0,577.2 965.4,575.5 965.8,576.3 966.2,576.8 966.6,577.0 967.0,578.0 967.4,578.9 967.8,579.4 968.2,580.3 968.6,580.4 969.0,580.5 969.4,580.3 969.8,579.8 970.2,579.3 970.6,579.6 971.0,578.0 971.4,578.0 971.8,579.3 972.2,580.7 972.6,581.2 973.0,581.0 973.4,580.7 973.8,580.5 974.2,579.4 974.6,579.6 975.1,578.9 975.5,579.7 975.9,579.8 976.3,579.6 976.7,579.8 977.1,580.4 977.5,580.3 977.9,579.9 978.3,580.2 978.7,580.4 979.1,581.0 979.5,581.4 979.9,581.5 980.3,581.4 980.7,581.1 981.1,581.6 981.5,581.9 981.9,581.3 982.3,580.6 982.7,580.4 983.1,579.9 983.5,579.3 983.9,578.4 984.3,577.4 984.7,578.0 985.1,577.7 985.5,578.2 985.9,579.0 986.3,579.3 986.7,579.8 987.1,579.7 987.6,580.1 988.0,580.4 988.4,581.0 988.8,582.1 989.2,582.2 989.6,582.3 990.0,582.2 990.4,580.9 990.8,580.5 991.2,580.2 991.6,580.3 992.0,581.3 992.4,581.1 992.8,581.7 993.2,582.0 993.6,581.9 994.0,581.5 994.4,582.3 994.8,582.6 995.2,582.4 995.6,582.9 996.0,583.6 996.4,582.8 996.8,583.1 997.2,583.4 997.6,584.0 998.0,584.2 998.4,584.1 998.8,583.1 999.2,583.7 999.6,583.7 1000.1,583.6 1000.5,584.6 1000.9,584.0 1001.3,584.9 1001.7,584.3 1002.1,584.0 1002.5,583.2 1002.9,583.1 1003.3,584.4 1003.7,585.0 1004.1,585.1 1004.5,585.8 1004.9,585.7 1005.3,584.8 1005.7,584.8 1006.1,585.4 1006.5,586.5 1006.9,586.4 1007.3,586.4 1007.7,587.0 1008.1,586.6 1008.5,586.4 1008.9,586.0 1009.3,587.5 1009.7,588.2 1010.1,586.9 1010.5,587.2 1010.9,588.3 1011.3,587.9 1011.7,588.0 1012.1,587.5 1012.6,587.2 1013.0,587.2 1013.4,587.1 1013.8,586.9 1014.2,586.3 1014.6,585.7 1015.0,586.3 1015.4,586.5 1015.8,586.2 1016.2,585.6 1016.6,585.9 1017.0,585.2 1017.4,584.6 1017.8,583.2 1018.2,583.8 1018.6,584.0 1019.0,584.6 1019.4,584.8 1019.8,585.3 1020.2,587.0 1020.6,587.0 1021.0,586.7 1021.4,586.8 1021.8,585.5 1022.2,585.4 1022.6,584.8 1023.0,584.5 1023.4,584.1 1023.8,584.1 1024.2,583.0 1024.6,582.8 1025.1,582.4 1025.5,581.9 1025.9,581.7 1026.3,581.3 1026.7,580.3 1027.1,580.0 1027.5,579.6 1027.9,579.0 1028.3,578.5 1028.7,577.9 1029.1,579.4 1029.5,579.0 1029.9,580.4 1030.3,579.3 1030.7,579.2 1031.1,578.5 1031.5,578.7 1031.9,579.4 1032.3,579.3 1032.7,579.6 1033.1,580.6 1033.5,580.6 1033.9,578.9 1034.3,578.3 1034.7,577.1 1035.1,576.3 1035.5,576.0 1035.9,575.8 1036.3,577.0 1036.7,577.2 1037.1,576.8 1037.6,577.4 1038.0,577.3 1038.4,578.3 1038.8,577.5 1039.2,577.3 1039.6,576.9 1040.0,576.5 1040.4,576.5 1040.8,576.4 1041.2,577.7 1041.6,578.9 1042.0,578.9 1042.4,579.3 1042.8,578.5 1043.2,577.2 1043.6,576.1 1044.0,576.5 1044.4,576.5 1044.8,576.7 1045.2,575.2 1045.6,573.7 1046.0,573.0 1046.4,573.4 1046.8,573.9 1047.2,573.1 1047.6,573.8 1048.0,573.6 1048.4,573.5 1048.8,572.5 1049.2,572.9 1049.6,574.5 1050.0,573.7 1050.5,573.9 1050.9,573.6 1051.3,573.7 1051.7,573.7 1052.1,572.8 1052.5,574.4 1052.9,574.6 1053.3,574.3 1053.7,574.4 1054.1,575.7 1054.5,575.3 1054.9,574.8 1055.3,574.9 1055.7,576.3 1056.1,575.6 1056.5,576.5 1056.9,576.1 1057.3,576.5 1057.7,576.6 1058.1,576.7 1058.5,576.8 1058.9,576.8 1059.3,576.2 1059.7,576.1 1060.1,575.7 1060.5,574.8 1060.9,575.0 1061.3,575.4 1061.7,577.0 1062.1,577.0 1062.5,577.3 1063.0,578.9 1063.4,579.1 1063.8,580.1 1064.2,579.3 1064.6,580.4 1065.0,581.1 1065.4,580.1 1065.8,579.8 1066.2,580.3 1066.6,580.8 1067.0,580.1 1067.4,581.2 1067.8,582.4 1068.2,582.2 1068.6,581.7 1069.0,581.7 1069.4,581.6 1069.8,580.9 1070.2,579.6 1070.6,580.3 1071.0,580.4 1071.4,579.1 1071.8,579.9 1072.2,579.6 1072.6,580.4 1073.0,580.7 1073.4,580.5 1073.8,581.2 1074.2,581.7 1074.6,581.2 1075.0,580.6 1075.5,580.5 1075.9,580.8 1076.3,580.5 1076.7,581.2 1077.1,580.4 1077.5,580.3 1077.9,578.4 1078.3,578.3 1078.7,578.9 1079.1,579.0 1079.5,578.6 1079.9,579.3 1080.3,579.5 1080.7,579.1 1081.1,580.0 1081.5,580.4 1081.9,580.6 1082.3,579.4 1082.7,579.8 1083.1,580.7 1083.5,581.8 1083.9,582.3 1084.3,583.0 1084.7,583.0 1085.1,583.5 1085.5,583.6 1085.9,583.9 1086.3,584.1 1086.7,583.3 1087.1,582.8 1087.5,582.4 1088.0,581.9 1088.4,581.9 1088.8,581.8 1089.2,581.7 1089.6,581.8 1090.0,581.9 1090.4,583.3 1090.8,583.0 1091.2,582.6 1091.6,582.8 1092.0,582.1 1092.4,582.9 1092.8,582.8 1093.2,583.5 1093.6,583.8 1094.0,583.8 1094.4,584.2 1094.8,584.0 1095.2,583.1 1095.6,583.7 1096.0,583.6 1096.4,584.3 1096.8,583.9 1097.2,584.6 1097.6,583.9 1098.0,582.5 1098.4,582.8 1098.8,583.5 1099.2,583.7 1099.6,582.6 1100.0,582.8 1100.5,583.2 1100.9,583.4 1101.3,583.2 1101.7,582.6 1102.1,581.9 1102.5,581.2 1102.9,581.0 1103.3,580.5 1103.7,580.7 1104.1,581.2 1104.5,580.7 1104.9,580.2 1105.3,579.5 1105.7,579.1 1106.1,580.1 1106.5,580.1 1106.9,579.2 1107.3,579.0 1107.7,580.4 1108.1,580.6 1108.5,580.2 1108.9,579.9 1109.3,581.0 1109.7,579.8 1110.1,579.7 1110.5,579.9 1110.9,580.1 1111.3,579.0 1111.7,579.6 1112.1,579.0 1112.5,578.9 1113.0,578.5 1113.4,578.3 1113.8,578.2 1114.2,578.5 1114.6,579.1 1115.0,580.1 1115.4,580.3 1115.8,580.2 1116.2,579.7 1116.6,579.3 1117.0,579.5 1117.4,578.6 1117.8,578.8 1118.2,578.7 1118.6,579.0 1119.0,578.3 1119.4,579.5 1119.8,579.0 1120.2,579.9 1120.6,579.9 1121.0,580.3 1121.4,581.7 1121.8,581.7 1122.2,582.5 1122.6,583.4 1123.0,582.2 1123.4,581.4 1123.8,580.9 1124.2,580.8 1124.6,580.8 1125.0,580.1 1125.5,578.7 1125.9,578.3 1126.3,579.7 1126.7,579.7 1127.1,579.8 1127.5,580.5 1127.9,580.2 1128.3,578.4 1128.7,578.1 1129.1,576.8 1129.5,577.1 1129.9,577.3 1130.3,577.3 1130.7,578.2 1131.1,578.7 1131.5,577.6 1131.9,576.4 1132.3,577.2 1132.7,576.6 1133.1,576.7 1133.5,576.5 1133.9,576.2 1134.3,575.6 1134.7,575.4 1135.1,574.6 1135.5,574.0 1135.9,573.6 1136.3,574.5 1136.7,573.2 1137.1,573.2 1137.5,573.4 1138.0,574.7 1138.4,575.6 1138.8,574.9 1139.2,574.8 1139.6,576.1 1140.0,576.2 1140.4,576.5 1140.8,575.5 1141.2,575.6 1141.6,575.3 1142.0,574.5 1142.4,575.0 1142.8,575.3 1143.2,575.8 1143.6,575.3 1144.0,575.8" fill="none" stroke="#D66B2C" stroke-width="2.2"/>
<text x="92.0" y="636.0" class="muted" text-anchor="middle">2015-01-05</text>
<text x="302.5" y="636.0" class="muted" text-anchor="middle">2017-01-04</text>
<text x="513.0" y="636.0" class="muted" text-anchor="middle">2019-01-04</text>
<text x="723.0" y="636.0" class="muted" text-anchor="middle">2021-01-04</text>
<text x="933.5" y="636.0" class="muted" text-anchor="middle">2023-01-04</text>
<text x="1144.0" y="636.0" class="muted" text-anchor="middle">2025-01-03</text>
<text x="58.0" y="664.0" class="muted" text-anchor="start">Source: TensorAlpha deterministic demo · Synthetic data only · Research software, not investment advice</text>
</svg>
